<svg width="17" height="16" viewBox="0 0 17 16" fill="none" xmlns="http://www.w3.org/2000/svg">
<path d="M3.20982 1.66667L4.18925 1.46488C4.11115 1.0858 3.82131 0.785821 3.44513 0.694746L3.20982 1.66667ZM2.06831 0.361413C1.53154 0.231456 0.991043 0.56125 0.861087 1.09803C0.73113 1.6348 1.06092 2.1753 1.5977 2.30526L2.06831 0.361413ZM5.27521 13.312L4.27534 13.2958L5.27521 13.312ZM14.6033 7.2813L15.5782 7.50386L14.6033 7.2813ZM15.1331 4.96045L14.1582 4.73789L15.1331 4.96045ZM3.44513 0.694746L2.06831 0.361413L1.5977 2.30526L2.97451 2.63859L3.44513 0.694746ZM4.53345 3.13556L4.18925 1.46488L2.23039 1.86846L2.57459 3.53913L4.53345 3.13556ZM12.5359 13.3333C12.5359 13.4874 12.3977 13.6667 12.1591 13.6667V15.6667C13.4413 15.6667 14.5359 14.652 14.5359 13.3333H12.5359ZM12.1591 13.6667C11.9205 13.6667 11.7823 13.4874 11.7823 13.3333H9.78229C9.78229 14.652 10.8769 15.6667 12.1591 15.6667V13.6667ZM11.7823 13.3333C11.7823 13.1792 11.9205 13 12.1591 13V11C10.8769 11 9.78229 12.0147 9.78229 13.3333H11.7823ZM12.1591 13C12.3977 13 12.5359 13.1792 12.5359 13.3333H14.5359C14.5359 12.0147 13.4413 11 12.1591 11V13ZM7.02867 13.3333C7.02867 13.4874 6.89045 13.6667 6.65185 13.6667V15.6667C7.93404 15.6667 9.02867 14.652 9.02867 13.3333H7.02867ZM6.65185 13.6667C6.41326 13.6667 6.27504 13.4874 6.27504 13.3333H4.27504C4.27504 14.652 5.36967 15.6667 6.65185 15.6667V13.6667ZM6.65185 13C6.89045 13 7.02867 13.1792 7.02867 13.3333H9.02867C9.02867 12.0147 7.93404 11 6.65185 11V13ZM6.27504 13.3333C6.27504 13.3316 6.27505 13.3299 6.27508 13.3282L4.27534 13.2958C4.27514 13.3083 4.27504 13.3208 4.27504 13.3333H6.27504ZM6.27508 13.3282C6.27755 13.176 6.41591 13 6.65185 13V11C5.38172 11 4.29641 11.9949 4.27534 13.2958L6.27508 13.3282ZM8.02867 14.3333H10.7823V12.3333H8.02867V14.3333ZM2.56837 3.5061L3.60098 9.53718L5.57229 9.19966L4.53968 3.16858L2.56837 3.5061ZM14.1582 4.73789L13.6284 7.05874L15.5782 7.50386L16.108 5.18301L14.1582 4.73789ZM3.55402 4.33734H13.7987V2.33734H3.55402V4.33734ZM4.58663 10.3684H11.9345V8.36842H4.58663V10.3684ZM5.27504 12.3333H5.24243V14.3333H5.27504V12.3333ZM4.20982 11.3509V10.7113H2.20982V11.3509H4.20982ZM4.20982 10.7113C4.20982 10.5453 4.35483 10.3684 4.58663 10.3684V8.36842C3.29765 8.36842 2.20982 9.39394 2.20982 10.7113H4.20982ZM5.24243 12.3333C4.64844 12.3333 4.20982 11.8701 4.20982 11.3509H2.20982C2.20982 13.0214 3.59127 14.3333 5.24243 14.3333V12.3333ZM13.6284 7.05874C13.4574 7.80783 12.7653 8.36842 11.9345 8.36842V10.3684C13.6659 10.3684 15.1924 9.19395 15.5782 7.50386L13.6284 7.05874ZM16.108 5.18301C16.4481 3.69329 15.2836 2.33734 13.7987 2.33734V4.33734C14.0635 4.33734 14.1984 4.56197 14.1582 4.73789L16.108 5.18301Z" fill="white"/>
</svg>
