<svg width="64" height="64" viewBox="0 0 64 64" fill="none" xmlns="http://www.w3.org/2000/svg">
<rect width="64" height="64" rx="32" fill="white"/>
<path d="M46.6663 31.9999C46.6663 40.1001 40.0998 46.6666 31.9997 46.6666C27.5391 46.6666 23.5436 44.6753 20.8536 41.5333M17.333 31.9999C17.333 23.8997 23.8995 17.3333 31.9997 17.3333C36.3802 17.3333 40.3122 19.2537 42.9997 22.2986M43.733 20.2666V23.1999H40.7997M20.2663 43.7333V40.7999H23.1997M27.474 32.9444L24.5523 31.7861C24.0882 31.6021 23.87 31.0332 24.0796 30.5535L25.0451 28.3443C25.8481 26.5072 27.5725 25.3333 29.4684 25.3333H29.508C29.6294 25.3333 29.7443 25.3915 29.8212 25.492L30.4244 26.2808C30.811 26.7862 31.3892 27.0793 31.9997 27.0793C32.6101 27.0793 33.1883 26.7862 33.5749 26.2808L34.1782 25.492C34.255 25.3915 34.37 25.3333 34.4913 25.3333H34.531C36.4268 25.3333 38.1513 26.5072 38.9542 28.3443L39.9197 30.5535C40.1294 31.0332 39.9112 31.6021 39.447 31.7861L36.5253 32.9444M27.474 32.9444V30.1944M27.474 32.9444V37.5555C27.474 38.1691 27.939 38.6666 28.5127 38.6666H35.4867C36.0603 38.6666 36.5253 38.1691 36.5253 37.5555L36.5253 32.9444M27.474 32.9444L27.474 34.2221M36.5253 32.9444V30.1944" stroke="black" stroke-width="2" stroke-linecap="round" stroke-linejoin="round"/>
<path d="M46.6663 31.9999C46.6663 40.1001 40.0998 46.6666 31.9997 46.6666C27.5391 46.6666 23.5436 44.6753 20.8536 41.5333M17.333 31.9999C17.333 23.8997 23.8995 17.3333 31.9997 17.3333C36.3802 17.3333 40.3122 19.2537 42.9997 22.2986M43.733 20.2666V23.1999H40.7997M20.2663 43.7333V40.7999H23.1997M27.474 32.9444L24.5523 31.7861C24.0882 31.6021 23.87 31.0332 24.0796 30.5535L25.0451 28.3443C25.8481 26.5072 27.5725 25.3333 29.4684 25.3333H29.508C29.6294 25.3333 29.7443 25.3915 29.8212 25.492L30.4244 26.2808C30.811 26.7862 31.3892 27.0793 31.9997 27.0793C32.6101 27.0793 33.1883 26.7862 33.5749 26.2808L34.1782 25.492C34.255 25.3915 34.37 25.3333 34.4913 25.3333H34.531C36.4268 25.3333 38.1513 26.5072 38.9542 28.3443L39.9197 30.5535C40.1294 31.0332 39.9112 31.6021 39.447 31.7861L36.5253 32.9444M27.474 32.9444V30.1944M27.474 32.9444V37.5555C27.474 38.1691 27.939 38.6666 28.5127 38.6666H35.4867C36.0603 38.6666 36.5253 38.1691 36.5253 37.5555L36.5253 32.9444M27.474 32.9444L27.474 34.2221M36.5253 32.9444V30.1944" stroke="url(#paint0_linear_688_5402)" stroke-opacity="0.8" stroke-width="2" stroke-linecap="round" stroke-linejoin="round"/>
<defs>
<linearGradient id="paint0_linear_688_5402" x1="46.6663" y1="17.3333" x2="12.4849" y2="24.9718" gradientUnits="userSpaceOnUse">
<stop offset="0.23289" stop-color="#EAC2C3"/>
<stop offset="1" stop-color="#97C5FE"/>
</linearGradient>
</defs>
</svg>
