<svg width="20" height="18" viewBox="0 0 20 18" fill="none" xmlns="http://www.w3.org/2000/svg">
<path d="M2.37627 10.358C1.63611 9.56063 1.16511 8.59059 0.9572 7.57852L0.956842 7.57679C0.946958 7.52859 0.937668 7.4803 0.928972 7.43192C0.611374 5.66471 1.08358 3.74848 2.37627 2.35586C4.4665 0.104036 7.88297 0.104037 9.9732 2.35586L9.99997 2.38471L10.0268 2.35586C12.117 0.104037 15.5335 0.104038 17.6237 2.35586C18.9515 3.78628 19.4139 5.76914 19.0431 7.57679C18.8354 8.5894 18.3642 9.56019 17.6237 10.358L11.8858 16.5394C10.9029 17.5984 9.09709 17.5984 8.11413 16.5394L2.37627 10.358Z" fill="#FD3333"/>
</svg>
