<svg width="16" height="16" viewBox="0 0 16 16" fill="none" xmlns="http://www.w3.org/2000/svg">
<path d="M9.33325 1.33334C12.2788 1.33334 14.6666 3.72116 14.6666 6.66668M9.33325 4.00001C10.806 4.00001 11.9999 5.19392 11.9999 6.66668M11.0261 14.6667C5.67288 14.6667 1.33325 10.327 1.33325 4.97386C1.33325 4.67738 1.34656 4.38402 1.37262 4.09433C1.48576 2.83646 2.55329 1.94366 3.79704 1.72436L4.31767 1.63256C5.25489 1.4673 6.14862 2.0931 6.31388 3.03032L6.53385 4.27781C6.74288 5.46328 5.95132 6.59375 4.76585 6.80278C4.41815 6.86409 4.2194 7.23529 4.384 7.54764C5.29706 9.28033 6.71957 10.7028 8.45225 11.6159C8.7646 11.7805 9.13582 11.5818 9.19713 11.2341C9.40616 10.0486 10.5366 9.25701 11.7221 9.46604L12.9696 9.686C13.9068 9.85126 14.5326 10.745 14.3674 11.6822L14.2756 12.2029C14.0562 13.4466 13.1634 14.5142 11.9056 14.6273C11.6159 14.6534 11.3225 14.6667 11.0261 14.6667Z" stroke="#020202" stroke-width="1.5" stroke-linecap="round" stroke-linejoin="round"/>
</svg>
