<svg width="14" height="14" viewBox="0 0 14 14" fill="none" xmlns="http://www.w3.org/2000/svg">
<path fill-rule="evenodd" clip-rule="evenodd" d="M1.91699 4.66715C1.91699 3.98951 2.28147 3.31884 2.98402 2.79193C3.6868 2.26484 4.69206 1.91666 5.83432 1.91666C6.97658 1.91666 7.98184 2.26484 8.68462 2.79193C9.38717 3.31884 9.75165 3.98951 9.75165 4.66715C9.75165 5.34479 9.38717 6.01547 8.68462 6.54238C7.98184 7.06947 6.97658 7.41765 5.83432 7.41765C4.69206 7.41765 3.6868 7.06947 2.98402 6.54238C2.28147 6.01547 1.91699 5.34479 1.91699 4.66715ZM11.2517 4.66715V7.41765H11.8353C12.8018 7.41765 13.5853 8.20115 13.5853 9.16765V11.835C13.5853 12.8015 12.8018 13.585 11.8353 13.585H9.33482H5.83432C4.39889 13.585 3.07048 13.1496 2.08402 12.4097C1.09733 11.6697 0.416992 10.5901 0.416992 9.33448V4.66715C0.416992 3.41152 1.09733 2.33195 2.08402 1.59193C3.07048 0.852084 4.39889 0.416656 5.83432 0.416656C7.26976 0.416656 8.59816 0.852084 9.58462 1.59193C10.5713 2.33195 11.2517 3.41152 11.2517 4.66715ZM1.91699 9.33448V7.61144C1.97161 7.65619 2.02731 7.69985 2.08402 7.74238C3.07048 8.48222 4.39889 8.91765 5.83432 8.91765H10.5017H11.8353C11.9734 8.91765 12.0853 9.02958 12.0853 9.16765V11.835C12.0853 11.9731 11.9734 12.085 11.8353 12.085H10.0848V11.0847C10.0848 10.6705 9.74903 10.3347 9.33482 10.3347C8.92061 10.3347 8.58482 10.6705 8.58482 11.0847V12.085H6.58432V11.0847C6.58432 10.6705 6.24854 10.3347 5.83432 10.3347C5.42011 10.3347 5.08432 10.6705 5.08432 11.0847V12.0338C4.25404 11.9188 3.52831 11.6179 2.98402 11.2097C2.28147 10.6828 1.91699 10.0121 1.91699 9.33448ZM5.83462 5.5424C6.64015 5.5424 7.29316 5.1506 7.29316 4.66728C7.29316 4.18396 6.64015 3.79216 5.83462 3.79216C5.02909 3.79216 4.37608 4.18396 4.37608 4.66728C4.37608 5.1506 5.02909 5.5424 5.83462 5.5424Z" fill="#A8BA66"/>
</svg>
