<svg width="25" height="24" viewBox="0 0 25 24" fill="none" xmlns="http://www.w3.org/2000/svg">
<rect x="0.5" width="24" height="24" rx="12" fill="url(#paint0_linear_3332_2608)"/>
<path fill-rule="evenodd" clip-rule="evenodd" d="M11.824 7.66241C11.824 8.94874 10.7663 9.99152 9.46157 9.99152C8.15681 9.99152 7.0991 8.94874 7.0991 7.66241C7.0991 6.37609 8.15681 5.33331 9.46157 5.33331C10.7663 5.33331 11.824 6.37609 11.824 7.66241ZM12.5606 13.6066L14.6446 17.7158C15.015 18.446 16.058 18.446 16.4284 17.7158L18.5124 13.6066C18.8498 12.9413 18.3664 12.1542 17.6205 12.1542H13.4525C12.7066 12.1542 12.2232 12.9413 12.5606 13.6066ZM6.48567 17.1902L8.56971 13.081C8.94006 12.3507 9.98307 12.3507 10.3534 13.081L12.4375 17.1901C12.7748 17.8554 12.2915 18.6425 11.5456 18.6425H7.37753C6.63165 18.6425 6.1483 17.8554 6.48567 17.1902ZM15.5365 9.99152C16.8413 9.99152 17.899 8.94874 17.899 7.66241C17.899 6.37609 16.8413 5.33331 15.5365 5.33331C14.2317 5.33331 13.174 6.37609 13.174 7.66241C13.174 8.94874 14.2317 9.99152 15.5365 9.99152Z" fill="white"/>
<defs>
<linearGradient id="paint0_linear_3332_2608" x1="24.5" y1="3.20066e-06" x2="-3.46667" y2="6.24974" gradientUnits="userSpaceOnUse">
<stop offset="0.23289" stop-color="#EAC2C3"/>
<stop offset="1" stop-color="#97C5FE"/>
</linearGradient>
</defs>
</svg>
