<svg width="24" height="21" viewBox="0 0 24 21" fill="none" xmlns="http://www.w3.org/2000/svg">
<path d="M14.2 17.2V17.1952V5.5M14.2 17.2H15.8M14.2 17.2L9 17.1952M20.8 17.2C22.015 17.2 23 16.5475 23 15.1769V11.0149C23 10.3289 22.7483 9.67356 22.3047 9.2044L19.2347 6.17121C18.8269 5.73998 18.2889 5.5 17.73 5.5H14.2M20.8 17.2C20.8 18.5807 19.6807 19.7 18.3 19.7C16.9193 19.7 15.8 18.5807 15.8 17.2M20.8 17.2C20.8 15.8193 19.6807 14.7 18.3 14.7C16.9193 14.7 15.8 15.8193 15.8 17.2M14.2 5.5V3.4817C14.2 2.1111 13.215 1 12 1H3.2C1.98497 1 1 2.1111 1 3.4817V14.7135C1 16.0841 1.98497 17.1952 3.2 17.1952H4M9 17.1952C9 18.5759 7.88071 19.6952 6.5 19.6952C5.11929 19.6952 4 18.5759 4 17.1952M9 17.1952C9 15.8144 7.88071 14.6952 6.5 14.6952C5.11929 14.6952 4 15.8144 4 17.1952" stroke="black" stroke-width="2"/>
<path d="M14.2 17.2V17.1952V5.5M14.2 17.2H15.8M14.2 17.2L9 17.1952M20.8 17.2C22.015 17.2 23 16.5475 23 15.1769V11.0149C23 10.3289 22.7483 9.67356 22.3047 9.2044L19.2347 6.17121C18.8269 5.73998 18.2889 5.5 17.73 5.5H14.2M20.8 17.2C20.8 18.5807 19.6807 19.7 18.3 19.7C16.9193 19.7 15.8 18.5807 15.8 17.2M20.8 17.2C20.8 15.8193 19.6807 14.7 18.3 14.7C16.9193 14.7 15.8 15.8193 15.8 17.2M14.2 5.5V3.4817C14.2 2.1111 13.215 1 12 1H3.2C1.98497 1 1 2.1111 1 3.4817V14.7135C1 16.0841 1.98497 17.1952 3.2 17.1952H4M9 17.1952C9 18.5759 7.88071 19.6952 6.5 19.6952C5.11929 19.6952 4 18.5759 4 17.1952M9 17.1952C9 15.8144 7.88071 14.6952 6.5 14.6952C5.11929 14.6952 4 15.8144 4 17.1952" stroke="url(#paint0_linear_5204_15185)" stroke-opacity="0.8" stroke-width="2"/>
<defs>
<linearGradient id="paint0_linear_5204_15185" x1="23" y1="1" x2="-2.17618" y2="7.619" gradientUnits="userSpaceOnUse">
<stop offset="0.23289" stop-color="#EAC2C3"/>
<stop offset="1" stop-color="#97C5FE"/>
</linearGradient>
</defs>
</svg>
