<svg width="23" height="22" viewBox="0 0 23 22" fill="none" xmlns="http://www.w3.org/2000/svg">
<path d="M3.48481 10.0909V19.1818C3.48481 20.186 4.29884 21 5.30299 21H9.84844M3.48481 10.0909H9.84844M3.48481 10.0909C2.48065 10.0909 1.66663 9.27688 1.66663 8.27273C1.66663 7.26857 2.48065 6.45455 3.48481 6.45455H9.84844M19.8484 10.0909V19.1818C19.8484 20.186 19.0344 21 18.0303 21H13.4848M19.8484 10.0909H13.4848M19.8484 10.0909C20.8526 10.0909 21.6666 9.27688 21.6666 8.27273C21.6666 7.26857 20.8526 6.45455 19.8484 6.45455H13.4848M13.4848 10.0909V21M13.4848 10.0909H9.84844M13.4848 10.0909V6.45455M13.4848 21H9.84844M9.84844 10.0909V21M9.84844 10.0909V6.45455M9.84844 6.45455H13.4848M8.03026 6.45455C6.52403 6.45455 5.30299 5.2335 5.30299 3.72727C5.30299 2.22104 6.52403 1 8.03026 1C9.54495 1 10.3224 2.64409 10.8263 4.0725L11.6666 6.45455L12.507 4.0725C13.0109 2.64409 13.7883 1 15.303 1C16.8092 1 18.0303 2.22104 18.0303 3.72727C18.0303 5.2335 16.8092 6.45455 15.303 6.45455" stroke="black" stroke-width="2" stroke-linejoin="round"/>
<path d="M3.48481 10.0909V19.1818C3.48481 20.186 4.29884 21 5.30299 21H9.84844M3.48481 10.0909H9.84844M3.48481 10.0909C2.48065 10.0909 1.66663 9.27688 1.66663 8.27273C1.66663 7.26857 2.48065 6.45455 3.48481 6.45455H9.84844M19.8484 10.0909V19.1818C19.8484 20.186 19.0344 21 18.0303 21H13.4848M19.8484 10.0909H13.4848M19.8484 10.0909C20.8526 10.0909 21.6666 9.27688 21.6666 8.27273C21.6666 7.26857 20.8526 6.45455 19.8484 6.45455H13.4848M13.4848 10.0909V21M13.4848 10.0909H9.84844M13.4848 10.0909V6.45455M13.4848 21H9.84844M9.84844 10.0909V21M9.84844 10.0909V6.45455M9.84844 6.45455H13.4848M8.03026 6.45455C6.52403 6.45455 5.30299 5.2335 5.30299 3.72727C5.30299 2.22104 6.52403 1 8.03026 1C9.54495 1 10.3224 2.64409 10.8263 4.0725L11.6666 6.45455L12.507 4.0725C13.0109 2.64409 13.7883 1 15.303 1C16.8092 1 18.0303 2.22104 18.0303 3.72727C18.0303 5.2335 16.8092 6.45455 15.303 6.45455" stroke="url(#paint0_linear_5204_14394)" stroke-opacity="0.8" stroke-width="2" stroke-linejoin="round"/>
<defs>
<linearGradient id="paint0_linear_5204_14394" x1="21.6666" y1="1" x2="-1.63893" y2="6.20812" gradientUnits="userSpaceOnUse">
<stop offset="0.23289" stop-color="#EAC2C3"/>
<stop offset="1" stop-color="#97C5FE"/>
</linearGradient>
</defs>
</svg>
