<svg width="21" height="22" viewBox="0 0 21 22" fill="none" xmlns="http://www.w3.org/2000/svg">
<path d="M13.0405 1.096L13.7528 1.79788L13.7671 1.78341L13.7807 1.76838L13.0405 1.096ZM1.41943 12.8897L0.707131 12.1878L0.692873 12.2023L0.679214 12.2173L1.41943 12.8897ZM8.07469 13.802L9.06518 13.9395L9.06638 13.9309L9.06743 13.9222L8.07469 13.802ZM7.12601 20.635L6.13551 20.4975L6.13431 20.5061L6.13326 20.5148L7.12601 20.635ZM7.62625 20.904L6.91395 20.2021L6.89969 20.2166L6.88603 20.2316L7.62625 20.904ZM19.2473 9.11035L19.9596 9.81222L19.9739 9.79775L19.9875 9.78272L19.2473 9.11035ZM12.5921 8.198L11.6016 8.06048C11.6008 8.06624 11.6 8.072 11.5993 8.07777L12.5921 8.198ZM13.5407 1.36497L14.5312 1.50249L14.5324 1.49385L14.5335 1.4852L13.5407 1.36497ZM12.3282 0.394128L0.707131 12.1878L2.13173 13.5915L13.7528 1.79788L12.3282 0.394128ZM1.62809 14.4381H7.78311V12.4381H1.62809V14.4381ZM7.08419 13.6645L6.13551 20.4975L8.11651 20.7726L9.06518 13.9395L7.08419 13.6645ZM8.33855 21.6059L19.9596 9.81222L18.535 8.40847L6.91395 20.2021L8.33855 21.6059ZM19.0387 7.56193H12.8836V9.56193H19.0387V7.56193ZM13.5826 8.33552L14.5312 1.50249L12.5502 1.22745L11.6016 8.06048L13.5826 8.33552ZM12.8836 7.56193C13.4034 7.56193 13.6213 8.01665 13.5848 8.31824L11.5993 8.07777C11.5161 8.76487 12.0083 9.56193 12.8836 9.56193V7.56193ZM19.9875 9.78272C20.3657 9.36643 20.403 8.82009 20.2448 8.40442C20.0858 7.98649 19.6656 7.56193 19.0387 7.56193V9.56193C18.6732 9.56193 18.4496 9.31011 18.3756 9.11564C18.3024 8.92344 18.3133 8.65131 18.5071 8.43798L19.9875 9.78272ZM6.13326 20.5148C6.06446 21.0829 6.35272 21.5986 6.81427 21.8467C7.29215 22.1037 7.9351 22.0513 8.36646 21.5764L6.88603 20.2316C7.11891 19.9753 7.49324 19.941 7.76138 20.0852C8.01319 20.2206 8.15057 20.4926 8.11875 20.7553L6.13326 20.5148ZM7.78311 14.4381C7.2633 14.4381 7.04542 13.9833 7.08194 13.6818L9.06743 13.9222C9.15065 13.2351 8.65848 12.4381 7.78311 12.4381V14.4381ZM0.679214 12.2173C0.301084 12.6336 0.263747 13.1799 0.421905 13.5956C0.580923 14.0135 1.00111 14.4381 1.62809 14.4381V12.4381C1.9935 12.4381 2.21718 12.6899 2.29117 12.8844C2.3643 13.0766 2.35342 13.3487 2.15965 13.562L0.679214 12.2173ZM13.7807 1.76838C13.5478 2.02475 13.1735 2.05897 12.9054 1.9148C12.6536 1.77941 12.5162 1.50745 12.548 1.24473L14.5335 1.4852C14.6023 0.917135 14.314 0.401434 13.8525 0.153273C13.3746 -0.103672 12.7316 -0.0512571 12.3003 0.423633L13.7807 1.76838Z" fill="black"/>
<path d="M13.0405 1.096L13.7528 1.79788L13.7671 1.78341L13.7807 1.76838L13.0405 1.096ZM1.41943 12.8897L0.707131 12.1878L0.692873 12.2023L0.679214 12.2173L1.41943 12.8897ZM8.07469 13.802L9.06518 13.9395L9.06638 13.9309L9.06743 13.9222L8.07469 13.802ZM7.12601 20.635L6.13551 20.4975L6.13431 20.5061L6.13326 20.5148L7.12601 20.635ZM7.62625 20.904L6.91395 20.2021L6.89969 20.2166L6.88603 20.2316L7.62625 20.904ZM19.2473 9.11035L19.9596 9.81222L19.9739 9.79775L19.9875 9.78272L19.2473 9.11035ZM12.5921 8.198L11.6016 8.06048C11.6008 8.06624 11.6 8.072 11.5993 8.07777L12.5921 8.198ZM13.5407 1.36497L14.5312 1.50249L14.5324 1.49385L14.5335 1.4852L13.5407 1.36497ZM12.3282 0.394128L0.707131 12.1878L2.13173 13.5915L13.7528 1.79788L12.3282 0.394128ZM1.62809 14.4381H7.78311V12.4381H1.62809V14.4381ZM7.08419 13.6645L6.13551 20.4975L8.11651 20.7726L9.06518 13.9395L7.08419 13.6645ZM8.33855 21.6059L19.9596 9.81222L18.535 8.40847L6.91395 20.2021L8.33855 21.6059ZM19.0387 7.56193H12.8836V9.56193H19.0387V7.56193ZM13.5826 8.33552L14.5312 1.50249L12.5502 1.22745L11.6016 8.06048L13.5826 8.33552ZM12.8836 7.56193C13.4034 7.56193 13.6213 8.01665 13.5848 8.31824L11.5993 8.07777C11.5161 8.76487 12.0083 9.56193 12.8836 9.56193V7.56193ZM19.9875 9.78272C20.3657 9.36643 20.403 8.82009 20.2448 8.40442C20.0858 7.98649 19.6656 7.56193 19.0387 7.56193V9.56193C18.6732 9.56193 18.4496 9.31011 18.3756 9.11564C18.3024 8.92344 18.3133 8.65131 18.5071 8.43798L19.9875 9.78272ZM6.13326 20.5148C6.06446 21.0829 6.35272 21.5986 6.81427 21.8467C7.29215 22.1037 7.9351 22.0513 8.36646 21.5764L6.88603 20.2316C7.11891 19.9753 7.49324 19.941 7.76138 20.0852C8.01319 20.2206 8.15057 20.4926 8.11875 20.7553L6.13326 20.5148ZM7.78311 14.4381C7.2633 14.4381 7.04542 13.9833 7.08194 13.6818L9.06743 13.9222C9.15065 13.2351 8.65848 12.4381 7.78311 12.4381V14.4381ZM0.679214 12.2173C0.301084 12.6336 0.263747 13.1799 0.421905 13.5956C0.580923 14.0135 1.00111 14.4381 1.62809 14.4381V12.4381C1.9935 12.4381 2.21718 12.6899 2.29117 12.8844C2.3643 13.0766 2.35342 13.3487 2.15965 13.562L0.679214 12.2173ZM13.7807 1.76838C13.5478 2.02475 13.1735 2.05897 12.9054 1.9148C12.6536 1.77941 12.5162 1.50745 12.548 1.24473L14.5335 1.4852C14.6023 0.917135 14.314 0.401434 13.8525 0.153273C13.3746 -0.103672 12.7316 -0.0512571 12.3003 0.423633L13.7807 1.76838Z" fill="url(#paint0_linear_5204_13935)" fill-opacity="0.8"/>
<defs>
<linearGradient id="paint0_linear_5204_13935" x1="19.3334" y1="1" x2="-1.83291" y2="5.25705" gradientUnits="userSpaceOnUse">
<stop offset="0.23289" stop-color="#EAC2C3"/>
<stop offset="1" stop-color="#97C5FE"/>
</linearGradient>
</defs>
</svg>
