<svg width="175" height="152" viewBox="0 0 175 152" fill="none" xmlns="http://www.w3.org/2000/svg">
<g opacity="0.5" filter="url(#filter0_i_892_14175)">
<path d="M110.77 139.745H34.0894C26.3756 139.745 20.1223 133.491 20.1223 125.777V125.777C20.1223 118.413 25.8408 112.313 33.1903 111.839L44.295 111.123" stroke="#B6BE9A" stroke-width="6" stroke-linecap="round"/>
</g>
<g filter="url(#filter1_ii_892_14175)">
<path d="M24.8089 58.7853L21.7811 44.437C20.6151 38.9116 15.7592 34.97 10.119 34.9707L3 34.9716" stroke="#B6BE9A" stroke-width="6" stroke-linecap="round"/>
<path d="M24.8089 58.7853L21.7811 44.437C20.6151 38.9116 15.7592 34.97 10.119 34.9707L3 34.9716" stroke="url(#paint0_radial_892_14175)" stroke-opacity="0.1" stroke-width="6" stroke-linecap="round"/>
</g>
<g filter="url(#filter2_i_892_14175)">
<path d="M22.0995 60.8939C21.1 57.0899 23.9694 53.3691 27.9025 53.3691H126.311C128.742 53.3691 130.611 55.5195 130.272 57.9267L123.318 107.33C123.05 109.234 121.466 110.678 119.546 110.768L39.4718 114.548C37.5858 114.637 35.8944 113.395 35.4146 111.569L22.0995 60.8939Z" fill="white"/>
<path d="M22.0995 60.8939C21.1 57.0899 23.9694 53.3691 27.9025 53.3691H126.311C128.742 53.3691 130.611 55.5195 130.272 57.9267L123.318 107.33C123.05 109.234 121.466 110.678 119.546 110.768L39.4718 114.548C37.5858 114.637 35.8944 113.395 35.4146 111.569L22.0995 60.8939Z" fill="#A8BA66" fill-opacity="0.1"/>
<path d="M22.0995 60.8939C21.1 57.0899 23.9694 53.3691 27.9025 53.3691H126.311C128.742 53.3691 130.611 55.5195 130.272 57.9267L123.318 107.33C123.05 109.234 121.466 110.678 119.546 110.768L39.4718 114.548C37.5858 114.637 35.8944 113.395 35.4146 111.569L22.0995 60.8939Z" fill="url(#paint1_radial_892_14175)" fill-opacity="0.1"/>
</g>
<g filter="url(#filter3_i_892_14175)">
<path d="M20.5944 53.3691H131.861C134.119 53.3691 135.95 55.1998 135.95 57.4579C135.95 59.7161 134.119 61.5467 131.861 61.5467H22.2465L20.5944 53.3691Z" fill="#F5F7EE"/>
<path d="M20.5944 53.3691H131.861C134.119 53.3691 135.95 55.1998 135.95 57.4579C135.95 59.7161 134.119 61.5467 131.861 61.5467H22.2465L20.5944 53.3691Z" fill="url(#paint2_linear_892_14175)" fill-opacity="0.2"/>
</g>
<g filter="url(#filter4_i_892_14175)">
<rect x="75.518" y="69.7246" width="6.04317" height="32.7103" rx="3.02158" fill="#F5F7EE"/>
<rect x="75.518" y="69.7246" width="6.04317" height="32.7103" rx="3.02158" fill="url(#paint3_linear_892_14175)" fill-opacity="0.4"/>
</g>
<g filter="url(#filter5_i_892_14175)">
<rect width="6.04416" height="33.7271" rx="3.02208" transform="matrix(0.994359 -0.106068 0.103011 0.99468 54.9156 69.9629)" fill="#F5F7EE"/>
<rect width="6.04416" height="33.7271" rx="3.02208" transform="matrix(0.994359 -0.106068 0.103011 0.99468 54.9156 69.9629)" fill="url(#paint4_linear_892_14175)" fill-opacity="0.4"/>
</g>
<g filter="url(#filter6_i_892_14175)">
<rect width="6.04708" height="35.7543" rx="3.02354" transform="matrix(0.977514 -0.210872 0.20499 0.978764 34.3459 70.356)" fill="#F5F7EE"/>
<rect width="6.04708" height="35.7543" rx="3.02354" transform="matrix(0.977514 -0.210872 0.20499 0.978764 34.3459 70.356)" fill="url(#paint5_linear_892_14175)" fill-opacity="0.4"/>
</g>
<g filter="url(#filter7_i_892_14175)">
<rect width="6.04361" height="32.708" rx="3.0218" transform="matrix(0.997491 0.0707903 -0.0687376 0.997635 95.642 69.6523)" fill="#F5F7EE"/>
<rect width="6.04361" height="32.708" rx="3.0218" transform="matrix(0.997491 0.0707903 -0.0687376 0.997635 95.642 69.6523)" fill="url(#paint6_linear_892_14175)" fill-opacity="0.4"/>
</g>
<g filter="url(#filter8_i_892_14175)">
<rect width="6.04492" height="32.701" rx="3.02246" transform="matrix(0.98998 0.141205 -0.137169 0.990548 113.754 69.6504)" fill="#F5F7EE"/>
<rect width="6.04492" height="32.701" rx="3.02246" transform="matrix(0.98998 0.141205 -0.137169 0.990548 113.754 69.6504)" fill="url(#paint7_linear_892_14175)" fill-opacity="0.4"/>
</g>
<g filter="url(#filter9_iii_892_14175)">
<ellipse cx="48.3238" cy="139.234" rx="12.0863" ry="12.2664" fill="#A8BA66"/>
<ellipse cx="48.3238" cy="139.234" rx="12.0863" ry="12.2664" fill="url(#paint8_radial_892_14175)" fill-opacity="0.05"/>
</g>
<g filter="url(#filter10_di_892_14175)">
<ellipse cx="48.3237" cy="139.234" rx="5.03597" ry="5.11098" fill="#F8F7F2"/>
</g>
<g filter="url(#filter11_iii_892_14175)">
<ellipse cx="110.77" cy="139.234" rx="12.0863" ry="12.2664" fill="#A8BA66"/>
<ellipse cx="110.77" cy="139.234" rx="12.0863" ry="12.2664" fill="url(#paint9_radial_892_14175)" fill-opacity="0.05"/>
</g>
<g filter="url(#filter12_di_892_14175)">
<ellipse cx="110.77" cy="139.234" rx="5.03597" ry="5.11098" fill="#F8F7F2"/>
</g>
<g filter="url(#filter13_ddii_892_14175)">
<path d="M143 53.3692C143 64.6601 133.981 73.8131 122.856 73.8131C111.731 73.8131 102.712 64.6601 102.712 53.3692C102.712 42.0783 111.731 32.9253 122.856 32.9253C133.981 32.9253 143 42.0783 143 53.3692Z" fill="#3684E4"/>
</g>
<path d="M122.839 59.8569C123.798 59.8569 124.547 60.1272 125.085 60.6679C125.623 61.2085 125.893 61.9182 125.893 62.7967C125.893 63.6753 125.623 64.3737 125.085 64.8918C124.547 65.3874 123.798 65.6352 122.839 65.6352C121.879 65.6352 121.119 65.3874 120.557 64.8918C120.019 64.3962 119.75 63.6979 119.75 62.7967C119.75 61.9182 120.019 61.2085 120.557 60.6679C121.119 60.1272 121.879 59.8569 122.839 59.8569ZM122.217 57.7956C121.197 57.7956 120.251 57.0541 120.346 56.0384C120.417 55.5203 120.534 55.0585 120.697 54.653C120.885 54.2475 121.119 53.887 121.399 53.5716C121.68 53.2337 121.985 52.8958 122.312 52.5579C122.663 52.1974 123.038 51.837 123.435 51.4766C123.857 51.1161 124.254 50.7444 124.629 50.3614C125.003 49.9785 125.307 49.5842 125.542 49.1787C125.799 48.7507 125.939 48.3001 125.963 47.8271C125.986 47.0161 125.717 46.4191 125.155 46.0361C124.617 45.6531 123.927 45.4504 123.084 45.4279C122.64 45.4053 122.207 45.4279 121.786 45.4954C121.388 45.563 121.025 45.6982 120.697 45.9009C120.393 46.0812 120.136 46.3402 119.925 46.6782C119.517 47.3324 118.966 47.996 118.195 47.996H117.211C115.871 47.996 114.732 46.8906 115.192 45.6314C115.263 45.4383 115.343 45.2465 115.432 45.0562C115.877 44.11 116.52 43.3328 117.363 42.7245C117.995 42.274 118.755 41.9023 119.644 41.6094C120.534 41.294 121.68 41.1251 123.084 41.1025C124.067 41.1025 125.003 41.1814 125.893 41.3391C126.805 41.4968 127.613 41.8009 128.315 42.2515C129.11 42.7471 129.742 43.4229 130.21 44.2789C130.701 45.1125 130.935 46.1488 130.912 47.3878C130.912 48.3114 130.737 49.1224 130.386 49.8208C130.058 50.5191 129.578 51.2062 128.946 51.8821C128.478 52.3551 128.01 52.8057 127.542 53.2337C127.074 53.6392 126.641 54.0785 126.244 54.5516C125.869 55.0022 125.553 55.4865 125.296 56.0046C124.883 56.9186 124.148 57.7956 123.145 57.7956H122.217Z" fill="white"/>
<defs>
<filter id="filter0_i_892_14175" x="13.1223" y="106.123" width="100.647" height="36.6216" filterUnits="userSpaceOnUse" color-interpolation-filters="sRGB">
<feFlood flood-opacity="0" result="BackgroundImageFix"/>
<feBlend mode="normal" in="SourceGraphic" in2="BackgroundImageFix" result="shape"/>
<feColorMatrix in="SourceAlpha" type="matrix" values="0 0 0 0 0 0 0 0 0 0 0 0 0 0 0 0 0 0 127 0" result="hardAlpha"/>
<feOffset dx="-4" dy="-2"/>
<feGaussianBlur stdDeviation="2.5"/>
<feComposite in2="hardAlpha" operator="arithmetic" k2="-1" k3="1"/>
<feColorMatrix type="matrix" values="0 0 0 0 0 0 0 0 0 0 0 0 0 0 0 0 0 0 0.2 0"/>
<feBlend mode="normal" in2="shape" result="effect1_innerShadow_892_14175"/>
</filter>
<filter id="filter1_ii_892_14175" x="-3.99634" y="23.9668" width="33.8022" height="41.8228" filterUnits="userSpaceOnUse" color-interpolation-filters="sRGB">
<feFlood flood-opacity="0" result="BackgroundImageFix"/>
<feBlend mode="normal" in="SourceGraphic" in2="BackgroundImageFix" result="shape"/>
<feColorMatrix in="SourceAlpha" type="matrix" values="0 0 0 0 0 0 0 0 0 0 0 0 0 0 0 0 0 0 127 0" result="hardAlpha"/>
<feOffset dx="2" dy="-8"/>
<feGaussianBlur stdDeviation="10"/>
<feComposite in2="hardAlpha" operator="arithmetic" k2="-1" k3="1"/>
<feColorMatrix type="matrix" values="0 0 0 0 0 0 0 0 0 0 0 0 0 0 0 0 0 0 0.05 0"/>
<feBlend mode="normal" in2="shape" result="effect1_innerShadow_892_14175"/>
<feColorMatrix in="SourceAlpha" type="matrix" values="0 0 0 0 0 0 0 0 0 0 0 0 0 0 0 0 0 0 127 0" result="hardAlpha"/>
<feOffset dx="-4" dy="4"/>
<feGaussianBlur stdDeviation="2"/>
<feComposite in2="hardAlpha" operator="arithmetic" k2="-1" k3="1"/>
<feColorMatrix type="matrix" values="0 0 0 0 1 0 0 0 0 1 0 0 0 0 1 0 0 0 0.5 0"/>
<feBlend mode="normal" in2="effect1_innerShadow_892_14175" result="effect2_innerShadow_892_14175"/>
</filter>
<filter id="filter2_i_892_14175" x="21.8993" y="53.3691" width="110.413" height="69.1836" filterUnits="userSpaceOnUse" color-interpolation-filters="sRGB">
<feFlood flood-opacity="0" result="BackgroundImageFix"/>
<feBlend mode="normal" in="SourceGraphic" in2="BackgroundImageFix" result="shape"/>
<feColorMatrix in="SourceAlpha" type="matrix" values="0 0 0 0 0 0 0 0 0 0 0 0 0 0 0 0 0 0 127 0" result="hardAlpha"/>
<feOffset dx="2" dy="8"/>
<feGaussianBlur stdDeviation="10"/>
<feComposite in2="hardAlpha" operator="arithmetic" k2="-1" k3="1"/>
<feColorMatrix type="matrix" values="0 0 0 0 0 0 0 0 0 0 0 0 0 0 0 0 0 0 0.05 0"/>
<feBlend mode="normal" in2="shape" result="effect1_innerShadow_892_14175"/>
</filter>
<filter id="filter3_i_892_14175" x="20.5944" y="51.3691" width="117.355" height="10.1777" filterUnits="userSpaceOnUse" color-interpolation-filters="sRGB">
<feFlood flood-opacity="0" result="BackgroundImageFix"/>
<feBlend mode="normal" in="SourceGraphic" in2="BackgroundImageFix" result="shape"/>
<feColorMatrix in="SourceAlpha" type="matrix" values="0 0 0 0 0 0 0 0 0 0 0 0 0 0 0 0 0 0 127 0" result="hardAlpha"/>
<feOffset dx="2" dy="-2"/>
<feGaussianBlur stdDeviation="5"/>
<feComposite in2="hardAlpha" operator="arithmetic" k2="-1" k3="1"/>
<feColorMatrix type="matrix" values="0 0 0 0 0 0 0 0 0 0 0 0 0 0 0 0 0 0 0.1 0"/>
<feBlend mode="normal" in2="shape" result="effect1_innerShadow_892_14175"/>
</filter>
<filter id="filter4_i_892_14175" x="75.518" y="67.7246" width="8.04315" height="34.7104" filterUnits="userSpaceOnUse" color-interpolation-filters="sRGB">
<feFlood flood-opacity="0" result="BackgroundImageFix"/>
<feBlend mode="normal" in="SourceGraphic" in2="BackgroundImageFix" result="shape"/>
<feColorMatrix in="SourceAlpha" type="matrix" values="0 0 0 0 0 0 0 0 0 0 0 0 0 0 0 0 0 0 127 0" result="hardAlpha"/>
<feOffset dx="2" dy="-2"/>
<feGaussianBlur stdDeviation="5"/>
<feComposite in2="hardAlpha" operator="arithmetic" k2="-1" k3="1"/>
<feColorMatrix type="matrix" values="0 0 0 0 0 0 0 0 0 0 0 0 0 0 0 0 0 0 0.1 0"/>
<feBlend mode="normal" in2="shape" result="effect1_innerShadow_892_14175"/>
</filter>
<filter id="filter5_i_892_14175" x="55.2106" y="67.625" width="10.8943" height="35.5825" filterUnits="userSpaceOnUse" color-interpolation-filters="sRGB">
<feFlood flood-opacity="0" result="BackgroundImageFix"/>
<feBlend mode="normal" in="SourceGraphic" in2="BackgroundImageFix" result="shape"/>
<feColorMatrix in="SourceAlpha" type="matrix" values="0 0 0 0 0 0 0 0 0 0 0 0 0 0 0 0 0 0 127 0" result="hardAlpha"/>
<feOffset dx="2" dy="-2"/>
<feGaussianBlur stdDeviation="5"/>
<feComposite in2="hardAlpha" operator="arithmetic" k2="-1" k3="1"/>
<feColorMatrix type="matrix" values="0 0 0 0 0 0 0 0 0 0 0 0 0 0 0 0 0 0 0.1 0"/>
<feBlend mode="normal" in2="shape" result="effect1_innerShadow_892_14175"/>
</filter>
<filter id="filter6_i_892_14175" x="34.9008" y="67.6499" width="14.1306" height="37.1318" filterUnits="userSpaceOnUse" color-interpolation-filters="sRGB">
<feFlood flood-opacity="0" result="BackgroundImageFix"/>
<feBlend mode="normal" in="SourceGraphic" in2="BackgroundImageFix" result="shape"/>
<feColorMatrix in="SourceAlpha" type="matrix" values="0 0 0 0 0 0 0 0 0 0 0 0 0 0 0 0 0 0 127 0" result="hardAlpha"/>
<feOffset dx="2" dy="-2"/>
<feGaussianBlur stdDeviation="5"/>
<feComposite in2="hardAlpha" operator="arithmetic" k2="-1" k3="1"/>
<feColorMatrix type="matrix" values="0 0 0 0 0 0 0 0 0 0 0 0 0 0 0 0 0 0 0.1 0"/>
<feBlend mode="normal" in2="shape" result="effect1_innerShadow_892_14175"/>
</filter>
<filter id="filter7_i_892_14175" x="93.5941" y="67.8584" width="9.87585" height="34.646" filterUnits="userSpaceOnUse" color-interpolation-filters="sRGB">
<feFlood flood-opacity="0" result="BackgroundImageFix"/>
<feBlend mode="normal" in="SourceGraphic" in2="BackgroundImageFix" result="shape"/>
<feColorMatrix in="SourceAlpha" type="matrix" values="0 0 0 0 0 0 0 0 0 0 0 0 0 0 0 0 0 0 127 0" result="hardAlpha"/>
<feOffset dx="2" dy="-2"/>
<feGaussianBlur stdDeviation="5"/>
<feComposite in2="hardAlpha" operator="arithmetic" k2="-1" k3="1"/>
<feColorMatrix type="matrix" values="0 0 0 0 0 0 0 0 0 0 0 0 0 0 0 0 0 0 0.1 0"/>
<feBlend mode="normal" in2="shape" result="effect1_innerShadow_892_14175"/>
</filter>
<filter id="filter8_i_892_14175" x="109.654" y="68.0464" width="11.6986" height="34.4536" filterUnits="userSpaceOnUse" color-interpolation-filters="sRGB">
<feFlood flood-opacity="0" result="BackgroundImageFix"/>
<feBlend mode="normal" in="SourceGraphic" in2="BackgroundImageFix" result="shape"/>
<feColorMatrix in="SourceAlpha" type="matrix" values="0 0 0 0 0 0 0 0 0 0 0 0 0 0 0 0 0 0 127 0" result="hardAlpha"/>
<feOffset dx="2" dy="-2"/>
<feGaussianBlur stdDeviation="5"/>
<feComposite in2="hardAlpha" operator="arithmetic" k2="-1" k3="1"/>
<feColorMatrix type="matrix" values="0 0 0 0 0 0 0 0 0 0 0 0 0 0 0 0 0 0 0.1 0"/>
<feBlend mode="normal" in2="shape" result="effect1_innerShadow_892_14175"/>
</filter>
<filter id="filter9_iii_892_14175" x="32.2374" y="124.967" width="29.1727" height="28.5327" filterUnits="userSpaceOnUse" color-interpolation-filters="sRGB">
<feFlood flood-opacity="0" result="BackgroundImageFix"/>
<feBlend mode="normal" in="SourceGraphic" in2="BackgroundImageFix" result="shape"/>
<feColorMatrix in="SourceAlpha" type="matrix" values="0 0 0 0 0 0 0 0 0 0 0 0 0 0 0 0 0 0 127 0" result="hardAlpha"/>
<feOffset dx="-4" dy="-2"/>
<feGaussianBlur stdDeviation="2.5"/>
<feComposite in2="hardAlpha" operator="arithmetic" k2="-1" k3="1"/>
<feColorMatrix type="matrix" values="0 0 0 0 0 0 0 0 0 0 0 0 0 0 0 0 0 0 0.2 0"/>
<feBlend mode="normal" in2="shape" result="effect1_innerShadow_892_14175"/>
<feColorMatrix in="SourceAlpha" type="matrix" values="0 0 0 0 0 0 0 0 0 0 0 0 0 0 0 0 0 0 127 0" result="hardAlpha"/>
<feOffset dx="1" dy="-2"/>
<feGaussianBlur stdDeviation="2"/>
<feComposite in2="hardAlpha" operator="arithmetic" k2="-1" k3="1"/>
<feColorMatrix type="matrix" values="0 0 0 0 0 0 0 0 0 0 0 0 0 0 0 0 0 0 0.1 0"/>
<feBlend mode="normal" in2="effect1_innerShadow_892_14175" result="effect2_innerShadow_892_14175"/>
<feColorMatrix in="SourceAlpha" type="matrix" values="0 0 0 0 0 0 0 0 0 0 0 0 0 0 0 0 0 0 127 0" result="hardAlpha"/>
<feOffset dx="-2" dy="2"/>
<feGaussianBlur stdDeviation="1"/>
<feComposite in2="hardAlpha" operator="arithmetic" k2="-1" k3="1"/>
<feColorMatrix type="matrix" values="0 0 0 0 1 0 0 0 0 1 0 0 0 0 1 0 0 0 0.4 0"/>
<feBlend mode="normal" in2="effect2_innerShadow_892_14175" result="effect3_innerShadow_892_14175"/>
</filter>
<filter id="filter10_di_892_14175" x="37.2877" y="132.123" width="18.072" height="18.2222" filterUnits="userSpaceOnUse" color-interpolation-filters="sRGB">
<feFlood flood-opacity="0" result="BackgroundImageFix"/>
<feColorMatrix in="SourceAlpha" type="matrix" values="0 0 0 0 0 0 0 0 0 0 0 0 0 0 0 0 0 0 127 0" result="hardAlpha"/>
<feOffset dx="-2" dy="2"/>
<feGaussianBlur stdDeviation="2"/>
<feComposite in2="hardAlpha" operator="out"/>
<feColorMatrix type="matrix" values="0 0 0 0 0 0 0 0 0 0 0 0 0 0 0 0 0 0 0.25 0"/>
<feBlend mode="normal" in2="BackgroundImageFix" result="effect1_dropShadow_892_14175"/>
<feBlend mode="normal" in="SourceGraphic" in2="effect1_dropShadow_892_14175" result="shape"/>
<feColorMatrix in="SourceAlpha" type="matrix" values="0 0 0 0 0 0 0 0 0 0 0 0 0 0 0 0 0 0 127 0" result="hardAlpha"/>
<feOffset dx="-4" dy="-2"/>
<feGaussianBlur stdDeviation="2.5"/>
<feComposite in2="hardAlpha" operator="arithmetic" k2="-1" k3="1"/>
<feColorMatrix type="matrix" values="0 0 0 0 0 0 0 0 0 0 0 0 0 0 0 0 0 0 0.2 0"/>
<feBlend mode="normal" in2="shape" result="effect2_innerShadow_892_14175"/>
</filter>
<filter id="filter11_iii_892_14175" x="94.6835" y="124.967" width="29.1727" height="28.5327" filterUnits="userSpaceOnUse" color-interpolation-filters="sRGB">
<feFlood flood-opacity="0" result="BackgroundImageFix"/>
<feBlend mode="normal" in="SourceGraphic" in2="BackgroundImageFix" result="shape"/>
<feColorMatrix in="SourceAlpha" type="matrix" values="0 0 0 0 0 0 0 0 0 0 0 0 0 0 0 0 0 0 127 0" result="hardAlpha"/>
<feOffset dx="-4" dy="-2"/>
<feGaussianBlur stdDeviation="2.5"/>
<feComposite in2="hardAlpha" operator="arithmetic" k2="-1" k3="1"/>
<feColorMatrix type="matrix" values="0 0 0 0 0 0 0 0 0 0 0 0 0 0 0 0 0 0 0.2 0"/>
<feBlend mode="normal" in2="shape" result="effect1_innerShadow_892_14175"/>
<feColorMatrix in="SourceAlpha" type="matrix" values="0 0 0 0 0 0 0 0 0 0 0 0 0 0 0 0 0 0 127 0" result="hardAlpha"/>
<feOffset dx="1" dy="-2"/>
<feGaussianBlur stdDeviation="2"/>
<feComposite in2="hardAlpha" operator="arithmetic" k2="-1" k3="1"/>
<feColorMatrix type="matrix" values="0 0 0 0 0 0 0 0 0 0 0 0 0 0 0 0 0 0 0.1 0"/>
<feBlend mode="normal" in2="effect1_innerShadow_892_14175" result="effect2_innerShadow_892_14175"/>
<feColorMatrix in="SourceAlpha" type="matrix" values="0 0 0 0 0 0 0 0 0 0 0 0 0 0 0 0 0 0 127 0" result="hardAlpha"/>
<feOffset dx="-2" dy="2"/>
<feGaussianBlur stdDeviation="1"/>
<feComposite in2="hardAlpha" operator="arithmetic" k2="-1" k3="1"/>
<feColorMatrix type="matrix" values="0 0 0 0 1 0 0 0 0 1 0 0 0 0 1 0 0 0 0.4 0"/>
<feBlend mode="normal" in2="effect2_innerShadow_892_14175" result="effect3_innerShadow_892_14175"/>
</filter>
<filter id="filter12_di_892_14175" x="99.7338" y="132.123" width="18.072" height="18.2222" filterUnits="userSpaceOnUse" color-interpolation-filters="sRGB">
<feFlood flood-opacity="0" result="BackgroundImageFix"/>
<feColorMatrix in="SourceAlpha" type="matrix" values="0 0 0 0 0 0 0 0 0 0 0 0 0 0 0 0 0 0 127 0" result="hardAlpha"/>
<feOffset dx="-2" dy="2"/>
<feGaussianBlur stdDeviation="2"/>
<feComposite in2="hardAlpha" operator="out"/>
<feColorMatrix type="matrix" values="0 0 0 0 0 0 0 0 0 0 0 0 0 0 0 0 0 0 0.25 0"/>
<feBlend mode="normal" in2="BackgroundImageFix" result="effect1_dropShadow_892_14175"/>
<feBlend mode="normal" in="SourceGraphic" in2="effect1_dropShadow_892_14175" result="shape"/>
<feColorMatrix in="SourceAlpha" type="matrix" values="0 0 0 0 0 0 0 0 0 0 0 0 0 0 0 0 0 0 127 0" result="hardAlpha"/>
<feOffset dx="-4" dy="-2"/>
<feGaussianBlur stdDeviation="2.5"/>
<feComposite in2="hardAlpha" operator="arithmetic" k2="-1" k3="1"/>
<feColorMatrix type="matrix" values="0 0 0 0 0 0 0 0 0 0 0 0 0 0 0 0 0 0 0.2 0"/>
<feBlend mode="normal" in2="shape" result="effect2_innerShadow_892_14175"/>
</filter>
<filter id="filter13_ddii_892_14175" x="54.7122" y="0.925293" width="120.288" height="120.888" filterUnits="userSpaceOnUse" color-interpolation-filters="sRGB">
<feFlood flood-opacity="0" result="BackgroundImageFix"/>
<feColorMatrix in="SourceAlpha" type="matrix" values="0 0 0 0 0 0 0 0 0 0 0 0 0 0 0 0 0 0 127 0" result="hardAlpha"/>
<feOffset dx="-8" dy="8"/>
<feGaussianBlur stdDeviation="5"/>
<feComposite in2="hardAlpha" operator="out"/>
<feColorMatrix type="matrix" values="0 0 0 0 0 0 0 0 0 0 0 0 0 0 0 0 0 0 0.05 0"/>
<feBlend mode="normal" in2="BackgroundImageFix" result="effect1_dropShadow_892_14175"/>
<feColorMatrix in="SourceAlpha" type="matrix" values="0 0 0 0 0 0 0 0 0 0 0 0 0 0 0 0 0 0 127 0" result="hardAlpha"/>
<feOffset dx="-8" dy="8"/>
<feGaussianBlur stdDeviation="20"/>
<feComposite in2="hardAlpha" operator="out"/>
<feColorMatrix type="matrix" values="0 0 0 0 0.211765 0 0 0 0 0.517647 0 0 0 0 0.894118 0 0 0 0.2 0"/>
<feBlend mode="normal" in2="effect1_dropShadow_892_14175" result="effect2_dropShadow_892_14175"/>
<feBlend mode="normal" in="SourceGraphic" in2="effect2_dropShadow_892_14175" result="shape"/>
<feColorMatrix in="SourceAlpha" type="matrix" values="0 0 0 0 0 0 0 0 0 0 0 0 0 0 0 0 0 0 127 0" result="hardAlpha"/>
<feOffset dx="2" dy="-12"/>
<feGaussianBlur stdDeviation="6"/>
<feComposite in2="hardAlpha" operator="arithmetic" k2="-1" k3="1"/>
<feColorMatrix type="matrix" values="0 0 0 0 0 0 0 0 0 0 0 0 0 0 0 0 0 0 0.1 0"/>
<feBlend mode="normal" in2="shape" result="effect3_innerShadow_892_14175"/>
<feColorMatrix in="SourceAlpha" type="matrix" values="0 0 0 0 0 0 0 0 0 0 0 0 0 0 0 0 0 0 127 0" result="hardAlpha"/>
<feOffset dx="-2" dy="2"/>
<feGaussianBlur stdDeviation="4"/>
<feComposite in2="hardAlpha" operator="arithmetic" k2="-1" k3="1"/>
<feColorMatrix type="matrix" values="0 0 0 0 1 0 0 0 0 1 0 0 0 0 1 0 0 0 0.4 0"/>
<feBlend mode="normal" in2="effect3_innerShadow_892_14175" result="effect4_innerShadow_892_14175"/>
</filter>
<radialGradient id="paint0_radial_892_14175" cx="0" cy="0" r="1" gradientUnits="userSpaceOnUse" gradientTransform="translate(20.1969 33.0294) rotate(79.8485) scale(26.1676 1.78327)">
<stop stop-color="#A8BA66" stop-opacity="0"/>
<stop offset="1" stop-color="#A8BA66"/>
</radialGradient>
<radialGradient id="paint1_radial_892_14175" cx="0" cy="0" r="1" gradientUnits="userSpaceOnUse" gradientTransform="translate(124.367 102.946) rotate(-134.576) scale(69.5992 69.5715)">
<stop stop-color="#A8BA66" stop-opacity="0"/>
<stop offset="1" stop-color="#A8BA66"/>
</radialGradient>
<linearGradient id="paint2_linear_892_14175" x1="308.972" y1="57.3542" x2="307.114" y2="77.8725" gradientUnits="userSpaceOnUse">
<stop stop-color="#A8BA66" stop-opacity="0"/>
<stop offset="1" stop-color="#A8BA66"/>
</linearGradient>
<linearGradient id="paint3_linear_892_14175" x1="90.6259" y1="85.4969" x2="78.9541" y2="87.1601" gradientUnits="userSpaceOnUse">
<stop stop-color="#A8BA66" stop-opacity="0"/>
<stop offset="1" stop-color="#A8BA66"/>
</linearGradient>
<linearGradient id="paint4_linear_892_14175" x1="15.1104" y1="16.2626" x2="3.42296" y2="17.878" gradientUnits="userSpaceOnUse">
<stop stop-color="#A8BA66" stop-opacity="0"/>
<stop offset="1" stop-color="#A8BA66"/>
</linearGradient>
<linearGradient id="paint5_linear_892_14175" x1="15.1177" y1="17.2401" x2="3.4006" y2="18.7685" gradientUnits="userSpaceOnUse">
<stop stop-color="#A8BA66" stop-opacity="0"/>
<stop offset="1" stop-color="#A8BA66"/>
</linearGradient>
<linearGradient id="paint6_linear_892_14175" x1="15.109" y1="15.7712" x2="3.43645" y2="17.4347" gradientUnits="userSpaceOnUse">
<stop stop-color="#A8BA66" stop-opacity="0"/>
<stop offset="1" stop-color="#A8BA66"/>
</linearGradient>
<linearGradient id="paint7_linear_892_14175" x1="15.1123" y1="15.7679" x2="3.4374" y2="17.4324" gradientUnits="userSpaceOnUse">
<stop stop-color="#A8BA66" stop-opacity="0"/>
<stop offset="1" stop-color="#A8BA66"/>
</linearGradient>
<radialGradient id="paint8_radial_892_14175" cx="0" cy="0" r="1" gradientUnits="userSpaceOnUse" gradientTransform="translate(54.6087 131.874) rotate(133.108) scale(26.8829 31.2448)">
<stop stop-opacity="0"/>
<stop offset="1"/>
</radialGradient>
<radialGradient id="paint9_radial_892_14175" cx="0" cy="0" r="1" gradientUnits="userSpaceOnUse" gradientTransform="translate(117.055 131.874) rotate(133.108) scale(26.8829 31.2448)">
<stop stop-opacity="0"/>
<stop offset="1"/>
</radialGradient>
</defs>
</svg>
