<svg width="20" height="20" viewBox="0 0 20 20" fill="none" xmlns="http://www.w3.org/2000/svg">
<g clip-path="url(#clip0_3358_884)">
<path opacity="0.4" fill-rule="evenodd" clip-rule="evenodd" d="M10 -0.000976562C4.3675 -0.000976562 0 4.12652 0 9.69902C0 12.614 1.195 15.134 3.14 16.874C3.3025 17.019 3.4025 17.224 3.4075 17.444L3.4625 19.224C3.48 19.7915 4.065 20.1615 4.585 19.9315L6.57 19.0565C6.7375 18.9815 6.9275 18.969 7.105 19.0165C8.0175 19.2665 8.9875 19.4015 10 19.4015C15.6325 19.4015 20 15.274 20 9.70152C20 4.12902 15.6325 -0.000976562 10 -0.000976562Z" fill="white"/>
<path fill-rule="evenodd" clip-rule="evenodd" d="M3.99495 12.5368L6.93244 7.87676C7.39994 7.13426 8.39994 6.95176 9.10244 7.47676L11.4399 9.22926C11.6549 9.38926 11.9499 9.38926 12.1624 9.22676L15.3174 6.83176C15.7374 6.51176 16.2874 7.01676 16.0074 7.46426L13.0674 12.1218C12.5999 12.8643 11.5999 13.0468 10.8974 12.5218L8.55994 10.7693C8.34494 10.6093 8.04994 10.6093 7.83744 10.7718L4.68245 13.1668C4.26245 13.4868 3.71245 12.9843 3.99495 12.5368Z" fill="#020202"/>
</g>
<defs>
<clipPath id="clip0_3358_884">
<rect width="20" height="20" rx="6" fill="white"/>
</clipPath>
</defs>
</svg>
