<svg width="25" height="24" viewBox="0 0 25 24" fill="none" xmlns="http://www.w3.org/2000/svg">
<path d="M5.01776 12.6292C4.14571 11.6724 3.59077 10.5083 3.34582 9.29384L3.34539 9.29175C3.33375 9.23392 3.3228 9.17597 3.31256 9.11791C2.93836 6.99726 3.49472 4.69778 5.01776 3.02664C7.48047 0.324453 11.5058 0.324454 13.9685 3.02664L14 3.06126L14.0316 3.02664C16.4943 0.324453 20.5196 0.324455 22.9823 3.02664C24.5466 4.74315 25.0914 7.12257 24.6546 9.29176C24.4099 10.5069 23.8548 11.6718 22.9823 12.6292L16.2219 20.0469C15.0638 21.3177 12.9362 21.3177 11.7781 20.0469L5.01776 12.6292Z" fill="#A8BA66" fill-opacity="0.15"/>
<path d="M3.01776 13.6292C2.14571 12.6724 1.59077 11.5083 1.34582 10.2938L1.34539 10.2918C1.33375 10.2339 1.3228 10.176 1.31256 10.1179C0.938364 7.99726 1.49472 5.69778 3.01776 4.02664C5.48047 1.32445 9.50575 1.32445 11.9685 4.02664L12 4.06126L12.0316 4.02664C14.4943 1.32445 18.5196 1.32445 20.9823 4.02664C22.5466 5.74315 23.0914 8.12257 22.6546 10.2918C22.4099 11.5069 21.8548 12.6718 20.9823 13.6292L14.2219 21.0469C13.0638 22.3177 10.9362 22.3177 9.77811 21.0469L3.01776 13.6292Z" stroke="#A8BA66" stroke-width="2" stroke-linecap="round"/>
</svg>
