<svg width="24" height="24" viewBox="0 0 24 24" fill="none" xmlns="http://www.w3.org/2000/svg">
<path fill-rule="evenodd" clip-rule="evenodd" d="M23 8.69499C23 9.66639 22.8351 10.6006 22.5309 11.4729C21.4252 14.7752 18.5909 17.4879 16.491 19.1351C15.0208 20.2883 12.9792 20.2883 11.509 19.1351C9.40913 17.4879 6.57475 14.7751 5.46907 11.4728C5.16488 10.6006 5 9.66638 5 8.69499C5 3.89288 9.02944 0 14 0C18.9706 0 23 3.89288 23 8.69499Z" fill="#A8BA66" fill-opacity="0.15"/>
<path fill-rule="evenodd" clip-rule="evenodd" d="M21 10.695C21 11.6664 20.8351 12.6006 20.5309 13.4729C19.4252 16.7752 16.5909 19.4879 14.491 21.1351C13.0208 22.2883 10.9792 22.2883 9.50905 21.1351C7.40913 19.4879 4.57475 16.7751 3.46907 13.4728C3.16488 12.6006 3 11.6664 3 10.695C3 5.89288 7.02944 2 12 2C16.9706 2 21 5.89288 21 10.695ZM12.0021 13.9246C14.0732 13.9246 15.7521 12.2562 15.7521 10.1981C15.7521 8.14008 14.0732 6.4717 12.0021 6.4717C9.93103 6.4717 8.25209 8.14008 8.25209 10.1981C8.25209 12.2562 9.93103 13.9246 12.0021 13.9246Z" stroke="#A8BA66" stroke-width="2"/>
</svg>
