<svg width="25" height="24" viewBox="0 0 25 24" fill="none" xmlns="http://www.w3.org/2000/svg">
<path d="M22.44 0H5.16C3.96707 0 3 0.976497 3 2.18107V18.1423C3 18.9625 3.37284 19.7383 4.01332 20.2507L4.35 20.52C5.13926 21.1514 6.26074 21.1514 7.05 20.52C7.83926 19.8886 8.96074 19.8886 9.75 20.52C10.5393 21.1514 11.6607 21.1514 12.45 20.52C13.2393 19.8886 14.3607 19.8886 15.15 20.52C15.9393 21.1514 17.0607 21.1514 17.85 20.52C18.6393 19.8886 19.7607 19.8886 20.55 20.52C21.3393 21.1514 22.4607 21.1514 23.25 20.52L23.5867 20.2507C24.2272 19.7383 24.6 18.9625 24.6 18.1423V2.18107C24.6 0.976497 23.6329 0 22.44 0Z" fill="#A8BA66" fill-opacity="0.15"/>
<path d="M18.28 5.37266H5.32M18.28 9.7348H5.32M11.8 14.0969H5.32M3.16 1H20.44C21.6329 1 22.6 1.9765 22.6 3.18107V19.1423C22.6 19.9625 22.2272 20.7383 21.5867 21.2507L21.25 21.52C20.4607 22.1514 19.3393 22.1514 18.55 21.52V21.52C17.7607 20.8886 16.6393 20.8886 15.85 21.52V21.52C15.0607 22.1514 13.9393 22.1514 13.15 21.52V21.52C12.3607 20.8886 11.2393 20.8886 10.45 21.52V21.52C9.66074 22.1514 8.53926 22.1514 7.75 21.52V21.52C6.96074 20.8886 5.83926 20.8886 5.05 21.52V21.52C4.26074 22.1514 3.13926 22.1514 2.35 21.52L2.01332 21.2507C1.37284 20.7383 1 19.9625 1 19.1423V3.18107C1 1.9765 1.96707 1 3.16 1Z" stroke="#A8BA66" stroke-width="2" stroke-linecap="round"/>
</svg>
