<svg width="16" height="16" viewBox="0 0 16 16" fill="none" xmlns="http://www.w3.org/2000/svg">
<g clip-path="url(#clip0_3291_674)">
<rect width="16" height="16" rx="8" fill="#1A47B8"/>
<path fill-rule="evenodd" clip-rule="evenodd" d="M-0.817047 0H-3.19995V2.66667L16.8042 16L19.2001 16V13.3333L-0.817047 0Z" fill="white"/>
<path d="M-2.40518 0L19.2001 14.4378V16H18.4239L-3.19995 1.54726V0H-2.40518Z" fill="#F93939"/>
<path fill-rule="evenodd" clip-rule="evenodd" d="M17.0667 0H19.2001V2.66667C19.2001 2.66667 5.34384 11.5499 -1.06662 16H-3.19995V13.3333L17.0667 0Z" fill="white"/>
<path d="M19.2001 0H18.4766L-3.19995 14.4502V16H-2.40518L19.2001 1.55895V0Z" fill="#F93939"/>
<path fill-rule="evenodd" clip-rule="evenodd" d="M4.94626 0H11.0725V4.93527H19.2001V11.0615H11.0725V16H4.94626V11.0615H-3.19995V4.93527H4.94626V0Z" fill="white"/>
<path fill-rule="evenodd" clip-rule="evenodd" d="M6.23163 0H9.76847V6.15385H19.2001V9.84615H9.76847V16H6.23163V9.84615H-3.19995V6.15385H6.23163V0Z" fill="#F93939"/>
</g>
<defs>
<clipPath id="clip0_3291_674">
<rect width="16" height="16" rx="8" fill="white"/>
</clipPath>
</defs>
</svg>
