<svg width="42" height="40" viewBox="0 0 42 40" fill="none" xmlns="http://www.w3.org/2000/svg">
<path d="M12.3274 20.709L6.81534 18.7196C5.70269 18.318 5.09517 17.1497 5.42115 16.0385L8.44951 5.71561C9.44199 2.33247 12.617 0 16.2297 0C16.5362 0 16.8164 0.168646 16.9534 0.435627L17.5993 1.69366C18.6852 3.80893 20.9051 5.1451 23.3333 5.1451C25.7616 5.1451 27.9814 3.80893 29.0674 1.69366L29.7132 0.435628C29.8503 0.168647 30.1305 0 30.437 0C34.0497 0 37.2247 2.33247 38.2172 5.71561L41.2455 16.0385C41.5715 17.1497 40.964 18.318 39.8513 18.7196L34.3393 20.709L35.4711 24.4531C37.2146 30.2204 29.5066 36 23.3335 36C17.1604 36 9.45212 30.2204 11.1956 24.4531L12.3274 20.709Z" fill="#A8BA66" fill-opacity="0.15"/>
<path d="M9.32744 22.709L3.81534 20.7196C2.70269 20.318 2.09517 19.1497 2.42115 18.0385L5.44951 7.71561C6.44199 4.33247 9.617 2 13.2297 2C13.5362 2 13.8164 2.16865 13.9534 2.43563L14.5993 3.69366C15.6852 5.80893 17.9051 7.1451 20.3333 7.1451C22.7616 7.1451 24.9814 5.80893 26.0674 3.69366L26.7132 2.43563C26.8503 2.16865 27.1305 2 27.437 2C31.0497 2 34.2247 4.33247 35.2172 7.71561L38.2455 18.0385C38.5715 19.1497 37.964 20.318 36.8513 20.7196L31.3393 22.709M9.32744 22.709V17.7569M9.32744 22.709L8.1956 26.4531M31.3393 22.709V17.7569M31.3393 22.709L32.4711 26.4531M20.3335 38C26.5066 38 34.2146 32.2204 32.4711 26.4531M20.3335 38C14.1604 38 6.45212 32.2204 8.1956 26.4531M20.3335 38L19.5383 30.0547C19.3337 28.0101 17.6131 26.4531 15.5582 26.4531H8.1956M20.3335 38L21.1286 30.0547C21.3333 28.0101 23.0539 26.4531 25.1088 26.4531H32.4711" stroke="#A8BA66" stroke-width="2" stroke-linecap="round" stroke-linejoin="round"/>
</svg>
