<svg width="41" height="40" viewBox="0 0 41 40" fill="none" xmlns="http://www.w3.org/2000/svg">
<path d="M19.7552 32.2667L20.4469 32.9889L20.4469 32.9889L19.7552 32.2667ZM22.5397 32.2667L21.848 32.9889L22.5397 32.2667ZM31.7453 24.9659L32.3463 24.1666C32.0059 23.9107 31.5408 23.8984 31.1874 24.136C30.834 24.3735 30.6698 24.8089 30.7783 25.2206L31.7453 24.9659ZM33.0396 29.879L34.0066 29.6243L33.0396 29.879ZM10.5495 24.9659L11.5165 25.2206C11.6198 24.8286 11.4761 24.4129 11.1527 24.1683C10.8294 23.9237 10.3903 23.8986 10.0411 24.1048L10.5495 24.9659ZM9.25525 29.879L10.2223 30.1338L9.25525 29.879ZM33.8053 26.5147L34.4062 25.7154L33.8053 26.5147ZM7.24257 26.9182L6.73419 26.0571H6.73419L7.24257 26.9182ZM38.2839 26.4945L38.8922 27.2882V27.2882L38.2839 26.4945ZM38.448 21.0882L37.7943 21.8449L38.448 21.0882ZM3.05069 21.0879L2.43921 20.2966H2.43921L3.05069 21.0879ZM3.06231 26.6706L3.67061 25.8769H3.67061L3.06231 26.6706ZM37.723 20.3084L38.5077 19.6886L38.5077 19.6886L37.723 20.3084ZM3.56301 20.6114L4.2978 21.2897H4.2978L3.56301 20.6114ZM23.1248 33.0344L23.9096 32.4147L23.9096 32.4147L23.1248 33.0344ZM19.1701 33.0344L18.3852 32.4147L19.1701 33.0344ZM20.4469 32.9889C20.5671 32.8738 20.8163 32.7637 21.1474 32.7637V30.7637C20.4365 30.7637 19.6436 30.9889 19.0635 31.5445L20.4469 32.9889ZM21.1474 32.7637C21.4786 32.7637 21.7278 32.8738 21.848 32.9889L23.2313 31.5445C22.6512 30.9889 21.8584 30.7637 21.1474 30.7637V32.7637ZM30.7783 25.2206L32.0726 30.1338L34.0066 29.6243L32.7123 24.7112L30.7783 25.2206ZM9.58252 24.7112L8.28824 29.6243L10.2223 30.1338L11.5165 25.2206L9.58252 24.7112ZM34.4062 25.7154L32.3463 24.1666L31.1444 25.7652L33.2043 27.314L34.4062 25.7154ZM7.75096 27.7794L11.0579 25.827L10.0411 24.1048L6.73419 26.0571L7.75096 27.7794ZM37.6756 25.7008C36.7211 26.4324 35.3681 26.4387 34.4062 25.7154L33.2043 27.314C34.8833 28.5764 37.2251 28.566 38.8922 27.2882L37.6756 25.7008ZM38.8922 27.2882C41.1685 25.5437 41.2725 22.2067 39.1017 20.3315L37.7943 21.8449C39.0023 22.8885 38.9492 24.7248 37.6756 25.7008L38.8922 27.2882ZM30.2044 40C31.4617 40 32.4837 39.583 33.2309 38.8093C33.9525 38.062 34.333 37.0701 34.5159 36.0567C34.879 34.0457 34.5269 31.5995 34.0066 29.6243L32.0726 30.1338C32.5635 31.9974 32.8347 34.1117 32.5477 35.7014C32.4057 36.4884 32.1428 37.057 31.7922 37.42C31.4671 37.7567 30.9878 38 30.2044 38V40ZM12.0905 38C11.307 38 10.8278 37.7567 10.5027 37.42C10.1521 37.057 9.8892 36.4885 9.74712 35.7014C9.46013 34.1117 9.73131 31.9974 10.2223 30.1338L8.28824 29.6243C7.76791 31.5995 7.41589 34.0457 7.77893 36.0567C7.96187 37.0701 8.34231 38.062 9.06398 38.8093C9.81114 39.583 10.8331 40 12.0905 40V38ZM2.43921 20.2966C0.0696133 22.1278 0.0771297 25.6426 2.45401 27.4643L3.67061 25.8769C2.33536 24.8535 2.33151 22.9075 3.66217 21.8792L2.43921 20.2966ZM2.45401 27.4643C3.98242 28.6357 6.09148 28.7591 7.75096 27.7794L6.73419 26.0571C5.77389 26.624 4.54881 26.5499 3.67061 25.8769L2.45401 27.4643ZM36.9382 20.9283C37.2033 21.2639 37.4904 21.5824 37.7943 21.8449L39.1017 20.3315C38.9246 20.1784 38.7245 19.9631 38.5077 19.6886L36.9382 20.9283ZM2.82821 19.9331C2.69045 20.0824 2.56018 20.2031 2.43921 20.2966L3.66217 21.8792C3.88932 21.7036 4.10125 21.5026 4.2978 21.2897L2.82821 19.9331ZM22.3399 33.6541C22.8278 34.272 23.2936 34.927 23.8183 35.63C24.3296 36.315 24.8795 37.0208 25.4812 37.6533C26.6804 38.9138 28.197 40 30.2044 40V38C28.9946 38 27.9683 37.3659 26.9303 36.2748C26.4135 35.7316 25.9212 35.1038 25.421 34.4336C24.934 33.7812 24.4186 33.0593 23.9096 32.4147L22.3399 33.6541ZM19.9549 33.6541C20.0793 33.4965 20.2048 33.3057 20.2709 33.2108C20.3544 33.0909 20.405 33.029 20.4469 32.9889L19.0635 31.5445C18.8731 31.7269 18.7308 31.9226 18.6297 32.0678C18.5111 32.238 18.4602 32.3198 18.3852 32.4147L19.9549 33.6541ZM29.1192 16.25C32.1735 16.25 34.8298 18.2588 36.9382 20.9283L38.5077 19.6886C36.2615 16.8447 33.0906 14.25 29.1192 14.25V16.25ZM23.9096 32.4147C23.8347 32.3198 23.7837 32.238 23.6652 32.0678C23.5641 31.9226 23.4218 31.7269 23.2313 31.5445L21.848 32.9889C21.8899 33.029 21.9405 33.0909 22.024 33.2108C22.0901 33.3057 22.2155 33.4965 22.3399 33.6541L23.9096 32.4147ZM18.3852 32.4147C17.8763 33.0593 17.3608 33.7812 16.8739 34.4336C16.3736 35.1038 15.8814 35.7316 15.3646 36.2748C14.3266 37.3659 13.3002 38 12.0905 38V40C14.0979 40 15.6145 38.9138 16.8136 37.6533C17.4154 37.0208 17.9652 36.315 18.4766 35.6299C19.0013 34.927 19.4671 34.272 19.9549 33.6541L18.3852 32.4147ZM12.1667 10.5C12.1667 5.80558 15.9723 2 20.6667 2V0C14.8677 0 10.1667 4.70101 10.1667 10.5H12.1667ZM20.6667 2C25.3611 2 29.1667 5.80558 29.1667 10.5H31.1667C31.1667 4.70101 26.4657 0 20.6667 0V2ZM22.1474 31.7637V19.988H20.1474V31.7637H22.1474ZM21.0977 18.9893C20.955 18.9964 20.8113 19 20.6667 19V21C20.8445 21 21.0214 20.9956 21.1972 20.9868L21.0977 18.9893ZM20.6667 19C17.5219 19 14.7747 17.2927 13.3035 14.7497L11.5723 15.7513C13.3864 18.8868 16.7792 21 20.6667 21V19ZM12.4264 14.2506C8.33082 14.2977 5.25622 17.3029 2.82821 19.9331L4.2978 21.2897C6.78774 18.5923 9.3201 16.2864 12.4494 16.2504L12.4264 14.2506ZM12.5238 14.25C12.4913 14.25 12.4588 14.2502 12.4264 14.2506L12.4494 16.2504C12.4742 16.2501 12.499 16.25 12.5238 16.25V14.25ZM13.3035 14.7497C12.5807 13.5004 12.1667 12.0501 12.1667 10.5H10.1667C10.1667 12.4111 10.6781 14.2057 11.5723 15.7513L13.3035 14.7497ZM29.1667 10.5C29.1667 12.0499 28.7528 13.5001 28.0301 14.7493L29.7613 15.7507C30.6553 14.2053 31.1667 12.4108 31.1667 10.5H29.1667ZM28.0301 14.7493C26.6264 17.176 24.0605 18.8416 21.0976 18.9893L21.1972 20.9868C24.8626 20.8041 28.0305 18.7428 29.7613 15.7507L28.0301 14.7493ZM29.1192 14.25H28.8957V16.25H29.1192V14.25Z" fill="#A8BA66"/>
</svg>
