<svg width="43" height="41" viewBox="0 0 43 41" fill="none" xmlns="http://www.w3.org/2000/svg">
<path d="M33.1667 9.5C33.1667 11.2304 32.7041 12.8527 31.8957 14.25C30.3285 16.9594 27.4615 18.8229 24.1474 18.988C23.9882 18.996 23.8279 19 23.6667 19C20.1505 19 17.0806 17.0898 15.4379 14.2505C14.6294 12.8531 14.1667 11.2306 14.1667 9.5C14.1667 4.25329 18.42 0 23.6667 0C28.9134 0 33.1667 4.25329 33.1667 9.5Z" fill="#A8BA66" fill-opacity="0.15"/>
<path d="M22.7552 31.2667C23.1053 30.9313 23.6264 30.7637 24.1474 30.7637V18.988C23.9882 18.996 23.8279 19 23.6667 19C20.1505 19 17.0806 17.0898 15.4379 14.2505C11.8255 14.292 9.02198 16.9476 6.56301 19.6114C6.39585 19.7925 6.22475 19.9534 6.05069 20.0879C4.20056 21.5177 4.20625 24.2481 6.06231 25.6706C7.26561 26.5928 8.93269 26.6916 10.2426 25.9182L13.5495 23.9659L12.2552 28.879C11.244 32.7178 11.0089 38 15.0905 38C18.3076 38 20.1765 34.5594 22.1701 32.0344C22.3694 31.7819 22.5228 31.4892 22.7552 31.2667Z" fill="#A8BA66" fill-opacity="0.15"/>
<path d="M24.1474 30.7637C24.6685 30.7637 25.1895 30.9313 25.5397 31.2667C25.772 31.4892 25.9254 31.7819 26.1248 32.0344C28.1184 34.5594 29.9872 38 33.2044 38C37.286 38 37.0509 32.7178 36.0396 28.879L34.7453 23.9659L36.8053 25.5147C38.1257 26.5075 39.9731 26.4992 41.2839 25.4945C43.0589 24.1342 43.1374 21.5476 41.448 20.0882C41.2075 19.8804 40.9639 19.6135 40.723 19.3084C38.5456 16.5518 35.632 14.25 32.1192 14.25H31.8957C30.3285 16.9594 27.4615 18.8229 24.1474 18.988V30.7637Z" fill="#A8BA66" fill-opacity="0.15"/>
<path d="M19.7552 33.2667L20.4469 33.9889L20.4469 33.9889L19.7552 33.2667ZM22.5397 33.2667L21.848 33.9889L22.5397 33.2667ZM31.7453 25.9659L32.3463 25.1666C32.0059 24.9107 31.5408 24.8984 31.1874 25.136C30.834 25.3735 30.6698 25.8089 30.7783 26.2206L31.7453 25.9659ZM33.0396 30.879L34.0066 30.6243L33.0396 30.879ZM10.5495 25.9659L11.5165 26.2206C11.6198 25.8286 11.4761 25.4129 11.1527 25.1683C10.8294 24.9237 10.3903 24.8986 10.0411 25.1048L10.5495 25.9659ZM9.25525 30.879L10.2223 31.1338L9.25525 30.879ZM33.8053 27.5147L34.4062 26.7154L33.8053 27.5147ZM7.24257 27.9182L6.73419 27.0571H6.73419L7.24257 27.9182ZM38.2839 27.4945L38.8922 28.2882V28.2882L38.2839 27.4945ZM38.448 22.0882L37.7943 22.8449L38.448 22.0882ZM3.05069 22.0879L2.43921 21.2966H2.43921L3.05069 22.0879ZM3.06231 27.6706L3.67061 26.8769H3.67061L3.06231 27.6706ZM37.723 21.3084L38.5077 20.6886L38.5077 20.6886L37.723 21.3084ZM3.56301 21.6114L4.2978 22.2897H4.2978L3.56301 21.6114ZM23.1248 34.0344L23.9096 33.4147L23.9096 33.4147L23.1248 34.0344ZM19.1701 34.0344L18.3852 33.4147L19.1701 34.0344ZM20.4469 33.9889C20.5671 33.8738 20.8163 33.7637 21.1474 33.7637V31.7637C20.4365 31.7637 19.6436 31.9889 19.0635 32.5445L20.4469 33.9889ZM21.1474 33.7637C21.4786 33.7637 21.7278 33.8738 21.848 33.9889L23.2313 32.5445C22.6512 31.9889 21.8584 31.7637 21.1474 31.7637V33.7637ZM30.7783 26.2206L32.0726 31.1338L34.0066 30.6243L32.7123 25.7112L30.7783 26.2206ZM9.58252 25.7112L8.28824 30.6243L10.2223 31.1338L11.5165 26.2206L9.58252 25.7112ZM34.4062 26.7154L32.3463 25.1666L31.1444 26.7652L33.2043 28.314L34.4062 26.7154ZM7.75096 28.7794L11.0579 26.827L10.0411 25.1048L6.73419 27.0571L7.75096 28.7794ZM37.6756 26.7008C36.7211 27.4324 35.3681 27.4387 34.4062 26.7154L33.2043 28.314C34.8833 29.5764 37.2251 29.566 38.8922 28.2882L37.6756 26.7008ZM38.8922 28.2882C41.1685 26.5437 41.2725 23.2067 39.1017 21.3315L37.7943 22.8449C39.0023 23.8885 38.9492 25.7248 37.6756 26.7008L38.8922 28.2882ZM30.2044 41C31.4617 41 32.4837 40.583 33.2309 39.8093C33.9525 39.062 34.333 38.0701 34.5159 37.0567C34.879 35.0457 34.5269 32.5995 34.0066 30.6243L32.0726 31.1338C32.5635 32.9974 32.8347 35.1117 32.5477 36.7014C32.4057 37.4884 32.1428 38.057 31.7922 38.42C31.4671 38.7567 30.9878 39 30.2044 39V41ZM12.0905 39C11.307 39 10.8278 38.7567 10.5027 38.42C10.1521 38.057 9.8892 37.4885 9.74712 36.7014C9.46013 35.1117 9.73131 32.9974 10.2223 31.1338L8.28824 30.6243C7.76791 32.5995 7.41589 35.0457 7.77893 37.0567C7.96187 38.0701 8.34231 39.062 9.06398 39.8093C9.81114 40.583 10.8331 41 12.0905 41V39ZM2.43921 21.2966C0.0696133 23.1278 0.0771297 26.6426 2.45401 28.4643L3.67061 26.8769C2.33536 25.8535 2.33151 23.9075 3.66217 22.8792L2.43921 21.2966ZM2.45401 28.4643C3.98242 29.6357 6.09148 29.7591 7.75096 28.7794L6.73419 27.0571C5.77389 27.624 4.54881 27.5499 3.67061 26.8769L2.45401 28.4643ZM36.9382 21.9283C37.2033 22.2639 37.4904 22.5824 37.7943 22.8449L39.1017 21.3315C38.9246 21.1784 38.7245 20.9631 38.5077 20.6886L36.9382 21.9283ZM2.82821 20.9331C2.69045 21.0824 2.56018 21.2031 2.43921 21.2966L3.66217 22.8792C3.88932 22.7036 4.10125 22.5026 4.2978 22.2897L2.82821 20.9331ZM22.3399 34.6541C22.8278 35.272 23.2936 35.927 23.8183 36.63C24.3296 37.315 24.8795 38.0208 25.4812 38.6533C26.6804 39.9138 28.197 41 30.2044 41V39C28.9946 39 27.9683 38.3659 26.9303 37.2748C26.4135 36.7316 25.9212 36.1038 25.421 35.4336C24.934 34.7812 24.4186 34.0593 23.9096 33.4147L22.3399 34.6541ZM19.9549 34.6541C20.0793 34.4965 20.2048 34.3057 20.2709 34.2108C20.3544 34.0909 20.405 34.029 20.4469 33.9889L19.0635 32.5445C18.8731 32.7269 18.7308 32.9226 18.6297 33.0678C18.5111 33.238 18.4602 33.3198 18.3852 33.4147L19.9549 34.6541ZM29.1192 17.25C32.1735 17.25 34.8298 19.2588 36.9382 21.9283L38.5077 20.6886C36.2615 17.8447 33.0906 15.25 29.1192 15.25V17.25ZM23.9096 33.4147C23.8347 33.3198 23.7837 33.238 23.6652 33.0678C23.5641 32.9226 23.4218 32.7269 23.2313 32.5445L21.848 33.9889C21.8899 34.029 21.9405 34.0909 22.024 34.2108C22.0901 34.3057 22.2155 34.4965 22.3399 34.6541L23.9096 33.4147ZM18.3852 33.4147C17.8763 34.0593 17.3608 34.7812 16.8739 35.4336C16.3736 36.1038 15.8814 36.7316 15.3646 37.2748C14.3266 38.3659 13.3002 39 12.0905 39V41C14.0979 41 15.6145 39.9138 16.8136 38.6533C17.4154 38.0208 17.9652 37.315 18.4766 36.6299C19.0013 35.927 19.4671 35.272 19.9549 34.6541L18.3852 33.4147ZM12.1667 11.5C12.1667 6.80558 15.9723 3 20.6667 3V1C14.8677 1 10.1667 5.70101 10.1667 11.5H12.1667ZM20.6667 3C25.3611 3 29.1667 6.80558 29.1667 11.5H31.1667C31.1667 5.70101 26.4657 1 20.6667 1V3ZM22.1474 32.7637V20.988H20.1474V32.7637H22.1474ZM21.0977 19.9893C20.955 19.9964 20.8113 20 20.6667 20V22C20.8445 22 21.0214 21.9956 21.1972 21.9868L21.0977 19.9893ZM20.6667 20C17.5219 20 14.7747 18.2927 13.3035 15.7497L11.5723 16.7513C13.3864 19.8868 16.7792 22 20.6667 22V20ZM12.4264 15.2506C8.33082 15.2977 5.25622 18.3029 2.82821 20.9331L4.2978 22.2897C6.78774 19.5923 9.3201 17.2864 12.4494 17.2504L12.4264 15.2506ZM12.5238 15.25C12.4913 15.25 12.4588 15.2502 12.4264 15.2506L12.4494 17.2504C12.4742 17.2501 12.499 17.25 12.5238 17.25V15.25ZM13.3035 15.7497C12.5807 14.5004 12.1667 13.0501 12.1667 11.5H10.1667C10.1667 13.4111 10.6781 15.2057 11.5723 16.7513L13.3035 15.7497ZM29.1667 11.5C29.1667 13.0499 28.7528 14.5001 28.0301 15.7493L29.7613 16.7507C30.6553 15.2053 31.1667 13.4108 31.1667 11.5H29.1667ZM28.0301 15.7493C26.6264 18.176 24.0605 19.8416 21.0976 19.9893L21.1972 21.9868C24.8626 21.8041 28.0305 19.7428 29.7613 16.7507L28.0301 15.7493ZM29.1192 15.25H28.8957V17.25H29.1192V15.25Z" fill="#A8BA66"/>
</svg>
