<svg width="41" height="40" viewBox="0 0 41 40" fill="none" xmlns="http://www.w3.org/2000/svg">
<path d="M12.2857 20.7L6.73695 18.6437C5.75688 18.2805 5.22175 17.2239 5.50889 16.2189L8.51054 5.71312C9.47673 2.33146 12.5676 0 16.0846 0C16.383 0 16.6557 0.168572 16.7891 0.435437L17.4179 1.69292C18.4751 3.80727 20.6361 5.14286 23 5.14286C25.3639 5.14286 27.5249 3.80727 28.5821 1.69292L29.2109 0.435437C29.3443 0.168572 29.617 0 29.9154 0C33.4324 0 36.5233 2.33146 37.4895 5.71312L40.4911 16.2189C40.7783 17.2239 40.2431 18.2805 39.2631 18.6437L33.7143 20.7V32.5193C33.7143 34.4416 32.1559 36 30.2336 36C28.7826 36 27.4839 35.1 26.9745 33.7414L24.3398 26.7155C23.8755 25.4776 22.1245 25.4776 21.6602 26.7155L19.0255 33.7414C18.5161 35.1 17.2174 36 15.7664 36C13.8441 36 12.2857 34.4416 12.2857 32.5193V20.7Z" fill="#A8BA66" fill-opacity="0.15"/>
<path d="M9.28571 22.7L3.73695 20.6437C2.75688 20.2805 2.22175 19.2239 2.50889 18.2189L5.51054 7.71312C6.47673 4.33146 9.56761 2 13.0846 2V2C13.383 2 13.6557 2.16857 13.7891 2.43544L14.4179 3.69292C15.4751 5.80727 17.6361 7.14286 20 7.14286V7.14286C22.3639 7.14286 24.5249 5.80727 25.5821 3.69292L26.2109 2.43544C26.3443 2.16857 26.617 2 26.9154 2V2C30.4324 2 33.5233 4.33146 34.4895 7.71312L37.4911 18.2189C37.7783 19.2239 37.2431 20.2805 36.2631 20.6437L30.7143 22.7M9.28571 22.7V34.5193C9.28571 36.4416 10.8441 38 12.7664 38V38C14.2174 38 15.5161 37.1 16.0255 35.7414L18.6603 28.7155C19.1245 27.4776 20.8755 27.4776 21.3397 28.7155L23.9745 35.7414C24.4839 37.1 25.7826 38 27.2336 38V38C29.1559 38 30.7143 36.4416 30.7143 34.5193V22.7M9.28571 22.7V17.75M30.7143 22.7V17.75" stroke="#A8BA66" stroke-width="2" stroke-linecap="round" stroke-linejoin="round"/>
</svg>
