<svg width="41" height="40" viewBox="0 0 41 40" fill="none" xmlns="http://www.w3.org/2000/svg">
<path d="M5.82979 29.9322L9 6.75V2C9 0.895431 9.89543 0 11 0H35C36.1046 0 37 0.895431 37 2V6.75L40.1702 29.9322C40.6091 33.1414 38.1148 36 34.8757 36C32.6125 36 30.5948 34.5743 29.8388 32.4412L24.8851 18.4625C24.2558 16.6865 21.7442 16.6865 21.1149 18.4625L16.1612 32.4412C15.4052 34.5743 13.3875 36 11.1243 36C7.88522 36 5.39092 33.1414 5.82979 29.9322Z" fill="#A8BA66" fill-opacity="0.15"/>
<path d="M6 8.75L2.82979 31.9322C2.39092 35.1414 4.88522 38 8.1243 38V38C10.3875 38 12.4052 36.5743 13.1612 34.4412L18.1149 20.4624C18.7442 18.6865 21.2558 18.6865 21.8851 20.4624L26.8388 34.4412C27.5948 36.5743 29.6125 38 31.8757 38V38C35.1148 38 37.6091 35.1414 37.1702 31.9322L34 8.75M6 8.75V4C6 2.89543 6.89543 2 8 2H32C33.1046 2 34 2.89543 34 4V8.75M6 8.75H34" stroke="#A8BA66" stroke-width="2" stroke-linecap="round" stroke-linejoin="round"/>
</svg>
