<svg width="45" height="43" viewBox="0 0 45 43" fill="none" xmlns="http://www.w3.org/2000/svg">
<path d="M12.1782 14.6622L5.86149 12.4309C4.85797 12.0764 4.38628 10.9804 4.83955 10.0563L6.92699 5.80059C8.66294 2.26145 12.3912 0 16.49 0H16.5758C16.8381 0 17.0866 0.112243 17.2527 0.305781L18.557 1.82529C19.3928 2.79893 20.6429 3.36359 21.9627 3.36359C23.2825 3.36359 24.5326 2.79893 25.3684 1.82529L26.6727 0.305781C26.8388 0.112243 27.0873 0 27.3496 0H27.4354C31.5342 0 35.2625 2.26145 36.9984 5.80059L39.0859 10.0563C39.5391 10.9804 39.0674 12.0764 38.0639 12.4309L31.7472 14.6622V17.1237H40.9257C42.166 17.1237 43.1714 18.0821 43.1714 19.2642V24.3478L44.6538 37.6331C44.7949 38.8977 43.755 40 42.4208 40H35.2032C34.1928 40 33.3068 39.3568 33.0383 38.4283L31.2158 32.1255C31.14 31.8636 30.7503 31.8636 30.6746 32.1255L28.852 38.4283C28.5835 39.3568 27.6976 40 26.6871 40H19.4696C18.1354 40 17.0954 38.8977 17.2365 37.6331L18.557 25.7995L14.4238 25.6856C13.1836 25.6856 12.1782 24.7273 12.1782 23.5451V14.6622Z" fill="#A8BA66" fill-opacity="0.15"/>
<path d="M9.17821 16.6622L2.86149 14.4309C1.85797 14.0764 1.38628 12.9804 1.83955 12.0563L3.92699 7.80059C5.66294 4.26145 9.39123 2 13.49 2H13.5758C13.8381 2 14.0866 2.11224 14.2527 2.30578L15.557 3.82529C16.3928 4.79893 17.6429 5.36359 18.9627 5.36359C20.2825 5.36359 21.5326 4.79893 22.3684 3.82529L23.6727 2.30578C23.8388 2.11224 24.0873 2 24.3496 2H24.4354C28.5342 2 32.2625 4.26145 33.9984 7.80059L36.0859 12.0563C36.5391 12.9804 36.0674 14.0764 35.0639 14.4309L28.7472 16.6622M9.17821 16.6622V11.3645M9.17821 16.6622V25.5451C9.17821 26.7273 10.1836 27.6856 11.4238 27.6856L15.557 27.7995M28.7472 11.3645V16.6622M15.719 26.3478V21.2642C15.719 20.0821 16.7244 19.1237 17.9646 19.1237H28.7472M15.719 26.3478H40.1714M15.719 26.3478L15.557 27.7995M40.1714 26.3478V21.2642C40.1714 20.0821 39.166 19.1237 37.9257 19.1237H28.7472M40.1714 26.3478L41.6538 39.6331C41.7949 40.8977 40.755 42 39.4208 42H32.2032C31.1928 42 30.3068 41.3568 30.0383 40.4283L28.2158 34.1255C28.14 33.8636 27.7503 33.8636 27.6746 34.1255L25.852 40.4283C25.5835 41.3568 24.6976 42 23.6871 42H16.4696C15.1354 42 14.0954 40.8977 14.2365 39.6331L15.557 27.7995M28.7472 19.1237V16.6622" stroke="#A8BA66" stroke-width="2" stroke-linecap="round" stroke-linejoin="round"/>
</svg>
