<svg width="24" height="24" viewBox="0 0 24 24" fill="none" xmlns="http://www.w3.org/2000/svg">
<path d="M4.06522 2.5L5.04465 2.29821C4.96655 1.91913 4.6767 1.61915 4.30053 1.52808L4.06522 2.5ZM2.23531 1.02808C1.69853 0.898122 1.15804 1.22792 1.02808 1.76469C0.898122 2.30147 1.22792 2.84196 1.76469 2.97192L2.23531 1.02808ZM7.16331 19.968L6.16344 19.9518L7.16331 19.968ZM21.1554 10.922L22.1303 11.1445L21.1554 10.922ZM21.9502 7.44068L20.9752 7.21812L21.9502 7.44068ZM4.30053 1.52808L2.23531 1.02808L1.76469 2.97192L3.82991 3.47192L4.30053 1.52808ZM5.56095 4.80423L5.04465 2.29821L3.08579 2.70179L3.6021 5.2078L5.56095 4.80423ZM18.5544 20C18.5544 20.5223 18.1079 21 17.4891 21V23C19.1515 23 20.5544 21.6869 20.5544 20H18.5544ZM17.4891 21C16.8704 21 16.4239 20.5223 16.4239 20H14.4239C14.4239 21.6869 15.8268 23 17.4891 23V21ZM16.4239 20C16.4239 19.4777 16.8704 19 17.4891 19V17C15.8268 17 14.4239 18.3131 14.4239 20H16.4239ZM17.4891 19C18.1079 19 18.5544 19.4777 18.5544 20H20.5544C20.5544 18.3131 19.1515 17 17.4891 17V19ZM10.2935 20C10.2935 20.5223 9.84706 21 9.22827 21V23C10.8907 23 12.2935 21.6869 12.2935 20H10.2935ZM9.22827 21C8.60947 21 8.16305 20.5223 8.16305 20H6.16305C6.16305 21.6869 7.56589 23 9.22827 23V21ZM9.22827 19C9.84706 19 10.2935 19.4777 10.2935 20H12.2935C12.2935 18.3131 10.8907 17 9.22827 17V19ZM8.16305 20C8.16305 19.9947 8.16309 19.9894 8.16318 19.9842L6.16344 19.9518C6.16318 19.9679 6.16305 19.9839 6.16305 20H8.16305ZM8.16318 19.9842C8.17152 19.4687 8.6158 19 9.22827 19V17C7.58162 17 6.19039 18.2877 6.16344 19.9518L8.16318 19.9842ZM11.2935 21H15.4239V19H11.2935V21ZM3.59587 5.17477L5.14478 14.2214L7.1161 13.8839L5.56718 4.83726L3.59587 5.17477ZM20.9752 7.21812L20.1805 10.6994L22.1303 11.1445L22.9251 7.66324L20.9752 7.21812ZM4.58152 6.00601H19.9486V4.00602H4.58152V6.00601ZM6.13044 15.0526H17.1523V13.0526H6.13044V15.0526ZM7.16305 19H7.11414V21H7.16305V19ZM5.06522 17.0263V16.0669H3.06522V17.0263H5.06522ZM5.06522 16.0669C5.06522 15.5301 5.51844 15.0526 6.13044 15.0526V13.0526C4.46126 13.0526 3.06522 14.3788 3.06522 16.0669H5.06522ZM7.11414 19C5.95885 19 5.06522 18.0929 5.06522 17.0263H3.06522C3.06522 19.2443 4.90168 21 7.11414 21V19ZM20.1805 10.6994C19.8703 12.0583 18.6236 13.0526 17.1523 13.0526V15.0526C19.5241 15.0526 21.6053 13.4444 22.1303 11.1445L20.1805 10.6994ZM22.9251 7.66324C23.3602 5.7571 21.8708 4.00602 19.9486 4.00602V6.00601C20.6507 6.00601 21.1105 6.62578 20.9752 7.21812L22.9251 7.66324Z" fill="#020202"/>
</svg>
