<svg width="20" height="20" viewBox="0 0 20 20" fill="none" xmlns="http://www.w3.org/2000/svg">
<circle opacity="0.4" cx="10" cy="10" r="10" fill="white"/>
<path d="M4.16675 5.68182C4.16675 5.30302 4.29813 4.99052 4.56089 4.74432C4.82365 4.4981 5.16525 4.375 5.58567 4.375C5.99858 4.375 6.33266 4.4962 6.58792 4.73864C6.85068 4.98864 6.98206 5.31439 6.98206 5.71591C6.98206 6.07955 6.85444 6.38257 6.59918 6.625C6.33642 6.875 5.99107 7 5.56314 7H5.55188C5.13897 7 4.80489 6.875 4.54963 6.625C4.29437 6.375 4.16675 6.0606 4.16675 5.68182ZM4.31314 15.625V8.03409H6.81314V15.625H4.31314ZM8.19828 15.625H10.6983V11.3864C10.6983 11.1212 10.7283 10.9167 10.7884 10.7727C10.8935 10.5151 11.053 10.2973 11.267 10.1193C11.4809 9.94128 11.7493 9.85227 12.0722 9.85227C12.913 9.85227 13.3334 10.4242 13.3334 11.5682V15.625H15.8334V11.2727C15.8334 10.1515 15.5707 9.30114 15.0451 8.72159C14.5196 8.14205 13.8252 7.85227 12.9618 7.85227C11.9933 7.85227 11.2388 8.27273 10.6983 9.11364V9.13636H10.687L10.6983 9.11364V8.03409H8.19828C8.21329 8.27651 8.2208 9.0303 8.2208 10.2955C8.2208 11.5606 8.21329 13.3371 8.19828 15.625Z" fill="#020202"/>
</svg>
