<svg width="22" height="22" viewBox="0 0 22 22" fill="none" xmlns="http://www.w3.org/2000/svg">
<path d="M4.84642 17.2576L5.67433 16.6967L4.84642 17.2576ZM4.06887 15.2926L5.05108 15.1048L5.05107 15.1048L4.06887 15.2926ZM17.8152 15.3942L18.7944 15.597L17.8152 15.3942ZM17.0579 17.2576L17.8858 17.8184V17.8184L17.0579 17.2576ZM13.5385 16.3484C13.7916 15.8575 13.5988 15.2544 13.1079 15.0013C12.617 14.7483 12.0139 14.9411 11.7608 15.4319L13.5385 16.3484ZM10.1435 15.4319C9.89038 14.9411 9.28728 14.7483 8.79639 15.0013C8.3055 15.2544 8.11271 15.8575 8.36578 16.3484L10.1435 15.4319ZM7.74672 6.79959L7.9629 7.77594L7.96323 7.77587L7.74672 6.79959ZM8.44891 6.41256L7.74106 5.7062L8.44891 6.41256ZM7.70968 6.80729L7.90015 7.78898L7.90015 7.78898L7.70968 6.80729ZM6.42731 6.41256L7.13516 5.7062L6.42731 6.41256ZM6.42731 4.34064L5.71947 3.63427L5.71947 3.63428L6.42731 4.34064ZM6.42731 4.32604L7.13516 3.61967L7.13516 3.61967L6.42731 4.32604ZM6.42731 2.25412L7.13516 2.96048L7.13516 2.96048L6.42731 2.25412ZM7.74628 1.86699L7.5301 2.84335L7.5301 2.84335L7.74628 1.86699ZM8.44891 2.25412L7.74106 2.96048L7.74106 2.96048L8.44891 2.25412ZM12.2197 5.07707L11.3038 4.67569L12.2197 5.07707ZM9.78161 5.07707L10.6975 4.67569L9.78161 5.07707ZM14.2546 6.79959L14.0381 7.77587L14.0384 7.77594L14.2546 6.79959ZM13.5524 6.41256L14.2602 5.7062L14.2602 5.7062L13.5524 6.41256ZM14.2916 6.80729L14.4821 5.82559L14.4821 5.82559L14.2916 6.80729ZM15.574 6.41256L14.8661 5.7062V5.7062L15.574 6.41256ZM15.574 4.34064L16.2818 3.63428L16.2818 3.63427L15.574 4.34064ZM15.574 2.25412L14.8661 2.96048V2.96048L15.574 2.25412ZM15.574 4.32604L16.2818 5.03241L16.2818 5.03241L15.574 4.32604ZM14.255 1.86699L14.4712 2.84335L14.4712 2.84335L14.255 1.86699ZM13.5524 2.25412L14.2602 2.96048L14.2602 2.96048L13.5524 2.25412ZM15.8354 6.05581L14.9482 5.59447L15.8354 6.05581ZM18.2456 10.9101L18.3068 9.91195L18.2456 10.9101ZM17.7041 9.64206L18.6982 9.53364L17.7041 9.64206ZM3.73514 10.9109L3.75964 11.9106L3.73514 10.9109ZM19.1673 12.9469C19.1673 13.5896 18.7002 13.9829 18.2758 13.9829V15.9829C19.9407 15.9829 21.1673 14.5531 21.1673 12.9469H19.1673ZM18.2758 11.911C18.7002 11.911 19.1673 12.3042 19.1673 12.9469H21.1673C21.1673 11.3408 19.9407 9.911 18.2758 9.911V11.911ZM3.72552 13.9829C3.30115 13.9829 2.83398 13.5896 2.83398 12.9469H0.833984C0.833984 14.5531 2.06056 15.9829 3.72552 15.9829V13.9829ZM2.83398 12.9469C2.83398 12.3042 3.30115 11.911 3.72552 11.911V9.911C2.06056 9.911 0.833984 11.3408 0.833984 12.9469H2.83398ZM5.67433 16.6967C5.4024 16.2953 5.18087 15.7836 5.05108 15.1048L3.08666 15.4804C3.2621 16.398 3.57867 17.1692 4.01851 17.8184L5.67433 16.6967ZM16.836 15.1914C16.7044 15.827 16.4905 16.3122 16.23 16.6967L17.8858 17.8184C18.3066 17.1973 18.6149 16.464 18.7944 15.597L16.836 15.1914ZM4.01851 17.8184C5.56604 20.1028 8.31953 21.1667 10.9522 21.1667C13.5848 21.1667 16.3383 20.1028 17.8858 17.8184L16.23 16.6967C15.1498 18.2912 13.1114 19.1667 10.9522 19.1667C8.79289 19.1667 6.7545 18.2912 5.67433 16.6967L4.01851 17.8184ZM18.2758 13.9829C17.4905 13.9829 16.9618 14.5838 16.836 15.1914L18.7944 15.597C18.7659 15.7349 18.614 15.9829 18.2758 15.9829V13.9829ZM18.1843 11.9082C18.2147 11.9101 18.2452 11.911 18.2758 11.911V9.911C18.2861 9.911 18.2965 9.91131 18.3068 9.91195L18.1843 11.9082ZM3.71064 9.91118C3.7156 9.91106 3.72056 9.911 3.72552 9.911V11.911C3.7369 11.911 3.74828 11.9109 3.75964 11.9106L3.71064 9.91118ZM3.72552 15.9829C3.33176 15.9829 3.12673 15.69 3.08666 15.4804L5.05107 15.1048C4.9434 14.5416 4.45464 13.9829 3.72552 13.9829V15.9829ZM11.7608 15.4319C11.5815 15.7797 11.2668 15.9666 10.9521 15.9666V17.9666C12.0984 17.9666 13.0559 17.2845 13.5385 16.3484L11.7608 15.4319ZM10.9521 15.9666C10.6375 15.9666 10.3228 15.7797 10.1435 15.4319L8.36578 16.3484C8.84839 17.2845 9.80591 17.9666 10.9521 17.9666V15.9666ZM7.96323 7.77587C8.39966 7.67908 8.81675 7.45965 9.15675 7.11893L7.74106 5.7062C7.67818 5.76921 7.60515 5.80669 7.53021 5.82331L7.96323 7.77587ZM7.90015 7.78898C7.92126 7.78488 7.94248 7.78047 7.9629 7.77594L7.53054 5.82324C7.52661 5.82411 7.52255 5.82495 7.51922 5.82559L7.90015 7.78898ZM5.71947 7.11893C6.31611 7.71682 7.141 7.93627 7.90015 7.78898L7.51922 5.82559C7.38546 5.85154 7.24215 5.81342 7.13516 5.7062L5.71947 7.11893ZM5.71947 1.54775C4.76105 2.50817 4.76104 4.07198 5.71947 5.03241L7.13516 3.61967C6.95582 3.43995 6.95582 3.1402 7.13516 2.96048L5.71947 1.54775ZM7.96246 0.890641C7.18596 0.718709 6.33242 0.933509 5.71947 1.54775L7.13516 2.96048C7.24494 2.85047 7.39327 2.81305 7.5301 2.84335L7.96246 0.890641ZM9.15675 1.54775C8.81656 1.20685 8.39916 0.987333 7.96246 0.890641L7.5301 2.84335C7.60504 2.85994 7.67814 2.89743 7.74106 2.96048L9.15675 1.54775ZM10.7375 3.94445H11.2638V1.94445H10.7375V3.94445ZM11.2638 4.72223H10.7375V6.72223H11.2638V4.72223ZM11.2638 3.94445C11.2647 3.94445 11.265 3.94452 11.2649 3.9445C11.2648 3.94448 11.2647 3.94447 11.2649 3.9445C11.265 3.94454 11.2672 3.94523 11.271 3.94791C11.2795 3.95375 11.2934 3.96734 11.3038 3.99099L13.1356 3.18823C12.8249 2.47928 12.1221 1.94445 11.2638 1.94445V3.94445ZM11.3038 3.99099C11.311 4.00753 11.3164 4.02883 11.3164 4.05557H13.3164C13.3164 3.74951 13.2526 3.45511 13.1356 3.18823L11.3038 3.99099ZM11.3164 4.61112C11.3164 4.63785 11.311 4.65916 11.3038 4.67569L13.1356 5.47845C13.2526 5.21157 13.3164 4.91717 13.3164 4.61112H11.3164ZM11.3038 4.67569C11.2934 4.69935 11.2795 4.71293 11.271 4.71878C11.2671 4.72145 11.265 4.72214 11.2649 4.72219C11.2647 4.72222 11.2648 4.7222 11.2649 4.72219C11.265 4.72217 11.2647 4.72223 11.2638 4.72223V6.72223C12.1221 6.72223 12.8249 6.1874 13.1356 5.47845L11.3038 4.67569ZM10.7375 4.72223C10.7366 4.72223 10.7363 4.72217 10.7364 4.72219C10.7365 4.7222 10.7366 4.72222 10.7364 4.72219C10.7363 4.72214 10.7341 4.72145 10.7303 4.71878C10.7218 4.71293 10.7079 4.69935 10.6975 4.67569L8.8657 5.47845C9.17638 6.1874 9.87919 6.72223 10.7375 6.72223V4.72223ZM10.6975 4.67569C10.6903 4.65916 10.6849 4.63786 10.6849 4.61112H8.68486C8.68486 4.91717 8.74874 5.21157 8.8657 5.47845L10.6975 4.67569ZM9.15675 7.11893L10.4895 5.78344L9.07376 4.3707L7.74106 5.7062L9.15675 7.11893ZM10.7375 1.94445C9.87919 1.94445 9.17638 2.47928 8.8657 3.18823L10.6975 3.99099C10.7079 3.96734 10.7218 3.95375 10.7303 3.9479C10.7341 3.94523 10.7363 3.94454 10.7364 3.9445C10.7366 3.94447 10.7365 3.94448 10.7364 3.9445C10.7363 3.94452 10.7366 3.94445 10.7375 3.94445V1.94445ZM8.8657 3.18823C8.74875 3.45511 8.68486 3.74951 8.68486 4.05557H10.6849C10.6849 4.02883 10.6903 4.00753 10.6975 3.99099L8.8657 3.18823ZM10.4895 2.88324L9.15675 1.54775L7.74106 2.96048L9.07377 4.29598L10.4895 2.88324ZM14.4711 5.82331C14.3962 5.80669 14.3231 5.76921 14.2602 5.7062L12.8445 7.11893C13.1846 7.45965 13.6016 7.67908 14.0381 7.77587L14.4711 5.82331ZM14.4821 5.82559C14.4788 5.82495 14.4747 5.82411 14.4708 5.82324L14.0384 7.77594C14.0588 7.78046 14.08 7.78488 14.1012 7.78898L14.4821 5.82559ZM14.8661 5.7062C14.7591 5.81342 14.6158 5.85154 14.4821 5.82559L14.1012 7.78898C14.8603 7.93627 15.6852 7.71682 16.2818 7.11893L14.8661 5.7062ZM14.8661 2.96048C15.0455 3.1402 15.0455 3.43995 14.8661 3.61967L16.2818 5.03241C17.2403 4.07198 17.2403 2.50817 16.2818 1.54775L14.8661 2.96048ZM14.4712 2.84335C14.608 2.81305 14.7564 2.85047 14.8661 2.96048L16.2818 1.54775C15.6689 0.933509 14.8153 0.718709 14.0388 0.890641L14.4712 2.84335ZM14.2602 2.96048C14.3232 2.89743 14.3963 2.85994 14.4712 2.84335L14.0388 0.890641C13.6021 0.987333 13.1847 1.20685 12.8445 1.54775L14.2602 2.96048ZM14.2602 5.7062L12.9275 4.3707L11.5118 5.78344L12.8445 7.11893L14.2602 5.7062ZM12.9275 4.29598L14.2602 2.96048L12.8445 1.54775L11.5118 2.88324L12.9275 4.29598ZM16.2818 3.63427C16.6673 4.02059 16.6673 4.64609 16.2818 5.03241L14.8661 3.61966C14.4726 4.01406 14.4726 4.65263 14.8661 5.04702L16.2818 3.63427ZM7.13515 5.04702C7.52873 4.65262 7.52872 4.01406 7.13516 3.61967L5.71947 5.03241C5.33396 4.64609 5.33395 4.0206 5.71947 3.63427L7.13515 5.04702ZM10.6849 4.61112V4.43059H8.68486V4.61112H10.6849ZM10.6849 4.43059V4.05557H8.68486V4.43059H10.6849ZM11.3164 4.05557V4.44137H13.3164V4.05557H11.3164ZM11.3164 4.44137V4.61112H13.3164V4.44137H11.3164ZM15.1708 6.80306C16.0366 7.57296 16.5837 8.59242 16.71 9.75047L18.6982 9.53364C18.5157 7.8603 17.7189 6.39263 16.4999 5.30856L15.1708 6.80306ZM14.8661 5.04701C15.0091 5.19029 15.0413 5.41543 14.9482 5.59447L16.7226 6.51715C17.2039 5.59157 17.0618 4.41585 16.2818 3.63428L14.8661 5.04701ZM14.9482 5.59447C14.9275 5.63413 14.9005 5.67175 14.8661 5.7062L16.2818 7.11893C16.4623 6.93809 16.6095 6.73462 16.7226 6.51715L14.9482 5.59447ZM5.49608 5.29078C4.20798 6.42821 3.36553 7.99338 3.18652 9.79082L5.17668 9.98901C5.30401 8.7104 5.89738 7.60456 6.81989 6.78995L5.49608 5.29078ZM5.71947 3.63428C4.94671 4.40865 4.80021 5.56985 5.26531 6.49106L7.05066 5.58967C6.96053 5.41114 6.99358 5.18889 7.13516 5.04701L5.71947 3.63428ZM5.26531 6.49106C5.38005 6.71831 5.53177 6.93084 5.71947 7.11893L7.13516 5.7062C7.09944 5.6704 7.07161 5.63114 7.05066 5.58967L5.26531 6.49106ZM18.3068 9.91195C18.3642 9.91547 18.4403 9.93102 18.5214 9.97113C18.6023 10.0112 18.6639 10.0636 18.7066 10.1126C18.7816 10.1984 18.7861 10.2583 18.7722 10.2044C18.7601 10.1579 18.7478 10.0816 18.7357 9.95479C18.7298 9.8934 18.7249 9.83206 18.719 9.75953C18.7133 9.691 18.7067 9.61197 18.6982 9.53364L16.71 9.75047C16.7233 9.87299 16.7476 10.3641 16.836 10.7057C16.8867 10.9013 16.9843 11.1809 17.2 11.4279C17.4442 11.7076 17.7865 11.8838 18.1843 11.9082L18.3068 9.91195ZM3.75964 11.9106C4.13774 11.9013 4.47305 11.7431 4.71414 11.478C4.9244 11.2468 5.01755 10.985 5.0642 10.812C5.1473 10.5038 5.16707 10.0855 5.17668 9.98901L3.18652 9.79082C3.18023 9.85401 3.1751 9.91879 3.17082 9.97228C3.16625 10.0294 3.16235 10.0775 3.15776 10.1237C3.14806 10.2215 3.13881 10.2704 3.13318 10.2913C3.12528 10.3206 3.1405 10.2358 3.23454 10.1324C3.28723 10.0744 3.3608 10.0152 3.45551 9.97185C3.55022 9.92848 3.63994 9.91291 3.71064 9.91118L3.75964 11.9106Z" fill="white"/>
</svg>
