<svg width="22" height="18" viewBox="0 0 22 18" fill="none" xmlns="http://www.w3.org/2000/svg">
<path d="M4.84642 14.0076L5.67433 13.4467H5.67433L4.84642 14.0076ZM4.06887 12.0426L5.05108 11.8548V11.8548L4.06887 12.0426ZM17.8152 12.1442L18.7944 12.347V12.347L17.8152 12.1442ZM17.0579 14.0076L17.8858 14.5684L17.0579 14.0076ZM12.3102 6.36111L13.0874 6.99035L12.3102 6.36111ZM10.5251 4.93374C10.8299 4.47315 10.7035 3.85272 10.2429 3.54796C9.78234 3.24321 9.1619 3.36954 8.85715 3.83014L10.5251 4.93374ZM13.5385 13.0984C13.7916 12.6075 13.5988 12.0044 13.1079 11.7513C12.617 11.4983 12.0139 11.691 11.7608 12.1819L13.5385 13.0984ZM10.1435 12.1819C9.89038 11.691 9.28728 11.4983 8.79639 11.7513C8.3055 12.0044 8.11271 12.6075 8.36579 13.0984L10.1435 12.1819ZM17.704 6.3916L18.6981 6.2831L17.704 6.3916ZM18.2456 7.66006L18.1843 8.65818L18.2456 7.66006ZM3.73514 7.66086L3.75964 8.66056L3.73514 7.66086ZM19.1673 9.69692C19.1673 10.3396 18.7002 10.7329 18.2758 10.7329V12.7329C19.9407 12.7329 21.1673 11.3031 21.1673 9.69692H19.1673ZM18.2758 8.66098C18.7002 8.66098 19.1673 9.05423 19.1673 9.69692H21.1673C21.1673 8.09078 19.9407 6.66098 18.2758 6.66098V8.66098ZM3.72552 10.7329C3.30115 10.7329 2.83398 10.3396 2.83398 9.69692H0.833984C0.833984 11.3031 2.06056 12.7329 3.72552 12.7329V10.7329ZM2.83398 9.69692C2.83398 9.05423 3.30115 8.66098 3.72552 8.66098V6.66098C2.06056 6.66098 0.833984 8.09078 0.833984 9.69692H2.83398ZM10.9521 0.0833282C6.875 0.0833282 3.56655 2.72562 3.18654 6.54065L5.17669 6.73889C5.43873 4.1082 7.73186 2.08333 10.9521 2.08333V0.0833282ZM10.9521 2.08333C14.2251 2.08333 16.4429 4.05317 16.7099 6.50009L18.6981 6.2831C18.2983 2.62013 15.0293 0.0833282 10.9521 0.0833282V2.08333ZM5.67433 13.4467C5.4024 13.0453 5.18087 12.5336 5.05108 11.8548L3.08666 12.2304C3.2621 13.148 3.57867 13.9192 4.01851 14.5684L5.67433 13.4467ZM16.836 11.9414C16.7044 12.577 16.4905 13.0622 16.23 13.4467L17.8858 14.5684C18.3066 13.9473 18.6149 13.214 18.7944 12.347L16.836 11.9414ZM4.01851 14.5684C5.56604 16.8528 8.31953 17.9167 10.9522 17.9167C13.5848 17.9167 16.3383 16.8528 17.8858 14.5684L16.23 13.4467C15.1498 15.0412 13.1114 15.9167 10.9522 15.9167C8.79289 15.9167 6.7545 15.0412 5.67433 13.4467L4.01851 14.5684ZM18.2758 10.7329C17.4905 10.7329 16.9618 11.3338 16.836 11.9414L18.7944 12.347C18.7659 12.4849 18.614 12.7329 18.2758 12.7329V10.7329ZM18.1843 8.65818C18.2147 8.66004 18.2452 8.66098 18.2758 8.66098V6.66098C18.2861 6.66098 18.2965 6.6613 18.3068 6.66194L18.1843 8.65818ZM3.71064 6.66116C3.7156 6.66104 3.72056 6.66098 3.72552 6.66098V8.66098C3.7369 8.66098 3.74828 8.66084 3.75964 8.66056L3.71064 6.66116ZM3.72552 12.7329C3.33176 12.7329 3.12673 12.44 3.08666 12.2304L5.05108 11.8548C4.9434 11.2916 4.45464 10.7329 3.72552 10.7329V12.7329ZM10.9521 2.08333C11.3186 2.08333 11.7933 2.39197 12.0211 3.23965C12.239 4.05011 12.1033 5.02739 11.533 5.73186L13.0874 6.99035C14.1194 5.71566 14.3111 4.05404 13.9526 2.72041C13.604 1.42399 12.5984 0.0833282 10.9521 0.0833282V2.08333ZM11.533 5.73186C11.3319 5.98024 10.9491 6.04354 10.6051 5.82243C10.4522 5.72415 10.3782 5.60564 10.3549 5.50579C10.3356 5.42273 10.3237 5.23812 10.5251 4.93374L8.85715 3.83014C8.40378 4.51534 8.24347 5.25623 8.40694 5.95894C8.56651 6.64486 9.00648 7.1724 9.52363 7.50483C10.5197 8.14512 12.1012 8.20842 13.0874 6.99035L11.533 5.73186ZM11.7608 12.1819C11.5815 12.5297 11.2668 12.7166 10.9521 12.7166V14.7166C12.0984 14.7166 13.0559 14.0345 13.5385 13.0984L11.7608 12.1819ZM10.9521 12.7166C10.6375 12.7166 10.3228 12.5297 10.1435 12.1819L8.36579 13.0984C8.84839 14.0345 9.80591 14.7166 10.9521 14.7166V12.7166ZM16.7099 6.50009C16.7233 6.62254 16.7476 7.11383 16.836 7.45543C16.8866 7.65096 16.9842 7.93057 17.1999 8.17767C17.4439 8.45737 17.7864 8.63376 18.1843 8.65818L18.3068 6.66194C18.3643 6.66546 18.4404 6.68104 18.5215 6.72119C18.6025 6.76126 18.6641 6.81375 18.7068 6.86267C18.7816 6.94847 18.7862 7.0083 18.7722 6.95422C18.7601 6.90766 18.7478 6.83122 18.7357 6.70438C18.7298 6.64296 18.7249 6.5816 18.7189 6.50904C18.7133 6.44049 18.7067 6.36144 18.6981 6.2831L16.7099 6.50009ZM3.18654 6.54065C3.18024 6.60384 3.17511 6.66863 3.17083 6.72212C3.16626 6.77922 3.16236 6.82732 3.15777 6.8736C3.14807 6.97144 3.13881 7.02031 3.13317 7.04121C3.12526 7.07054 3.14047 6.98579 3.23448 6.8824C3.28716 6.82447 3.36072 6.76525 3.45544 6.72186C3.55017 6.67847 3.63991 6.6629 3.71064 6.66116L3.75964 8.66056C4.13781 8.6513 4.47314 8.49303 4.7142 8.22792C4.92443 7.99672 5.01757 7.73486 5.06421 7.56187C5.14731 7.25369 5.16708 6.83539 5.17669 6.73889L3.18654 6.54065Z" fill="white"/>
</svg>
