<svg width="16" height="16" viewBox="0 0 16 16" fill="none" xmlns="http://www.w3.org/2000/svg">
<g id="Icon">
<path id="Icon_2" d="M14.6673 8.95236V12C14.6673 13.4727 13.4734 14.6666 12.0007 14.6666H4.00065C2.52789 14.6666 1.33398 13.4727 1.33398 12V3.99998C1.33398 2.52722 2.52789 1.33331 4.00065 1.33331H7.04827M10.4582 2.68181C10.4582 2.68181 10.4582 3.63534 11.4118 4.58887C12.3653 5.54241 13.3188 5.54241 13.3188 5.54241M6.10377 10.6597L8.10618 10.3736C8.39502 10.3324 8.66269 10.1985 8.86901 9.99222L14.2724 4.58887C14.799 4.06225 14.799 3.20843 14.2724 2.68181L13.3188 1.72828C12.7922 1.20166 11.9384 1.20166 11.4118 1.72828L6.00841 7.13162C5.8021 7.33794 5.66826 7.60561 5.627 7.89445L5.34094 9.89686C5.27737 10.3418 5.65879 10.7233 6.10377 10.6597Z" stroke="#A8BA66" stroke-width="1.5" stroke-linecap="round"/>
</g>
</svg>
