<svg width="20" height="20" viewBox="0 0 20 20" fill="none" xmlns="http://www.w3.org/2000/svg">
<g id="Icon" opacity="0.8">
<path id="Icon_2" d="M9.99996 4.60352L9.26797 5.28484C9.45715 5.48808 9.7223 5.60352 9.99996 5.60352C10.2776 5.60352 10.5428 5.48808 10.7319 5.28484L9.99996 4.60352ZM10.6375 3.91857L9.90551 3.23725V3.23725L10.6375 3.91857ZM9.36242 3.91857L10.0944 3.23725V3.23725L9.36242 3.91857ZM2.98701 10.768L3.719 10.0867L2.98701 10.768ZM8.72488 16.9326L7.99289 17.6139L8.72488 16.9326ZM17.0129 3.91857L17.7449 3.23725V3.23725L17.0129 3.91857ZM2.98702 3.91857L2.25503 3.23725L2.98702 3.91857ZM14.2083 17.5C14.2083 18.0523 14.656 18.5 15.2083 18.5C15.7606 18.5 16.2083 18.0523 16.2083 17.5H14.2083ZM16.2083 11.0714C16.2083 10.5191 15.7606 10.0714 15.2083 10.0714C14.656 10.0714 14.2083 10.5191 14.2083 11.0714H16.2083ZM12.0833 13.2857C11.531 13.2857 11.0833 13.7334 11.0833 14.2857C11.0833 14.838 11.531 15.2857 12.0833 15.2857V13.2857ZM18.3333 15.2857C18.8856 15.2857 19.3333 14.838 19.3333 14.2857C19.3333 13.7334 18.8856 13.2857 18.3333 13.2857V15.2857ZM9.17174 18.3694C9.69728 18.5392 10.2609 18.2508 10.4307 17.7252C10.6005 17.1997 10.3121 16.636 9.78652 16.4662L9.17174 18.3694ZM17.2473 8.19141C17.136 8.73237 17.4843 9.2611 18.0253 9.37236C18.5663 9.48361 19.095 9.13527 19.2063 8.5943L17.2473 8.19141ZM10.7319 5.28484L11.3695 4.59989L9.90551 3.23725L9.26797 3.9222L10.7319 5.28484ZM8.63043 4.5999L9.26797 5.28484L10.7319 3.9222L10.0944 3.23725L8.63043 4.5999ZM2.25503 11.4494L7.99289 17.6139L9.45686 16.2513L3.719 10.0867L2.25503 11.4494ZM17.7449 3.23725C15.5889 0.920917 12.0615 0.920916 9.90551 3.23725L11.3695 4.59989C12.7345 3.13337 14.9159 3.13337 16.2809 4.59989L17.7449 3.23725ZM3.719 4.59989C5.08402 3.13337 7.26541 3.13337 8.63044 4.5999L10.0944 3.23725C7.93839 0.920917 4.41105 0.920915 2.25503 3.23725L3.719 4.59989ZM2.25503 3.23725C0.137158 5.51261 0.137157 9.17401 2.25503 11.4494L3.719 10.0867C2.31583 8.57922 2.31584 6.1074 3.719 4.59989L2.25503 3.23725ZM16.2083 17.5V14.2857H14.2083V17.5H16.2083ZM16.2083 14.2857V11.0714H14.2083V14.2857H16.2083ZM15.2083 13.2857H12.0833V15.2857H15.2083V13.2857ZM15.2083 15.2857H18.3333V13.2857H15.2083V15.2857ZM7.99289 17.6139C8.32628 17.9721 8.73217 18.2274 9.17174 18.3694L9.78652 16.4662C9.67397 16.4299 9.5597 16.3617 9.45686 16.2513L7.99289 17.6139ZM16.2809 4.59989C17.1737 5.55906 17.5083 6.92189 17.2473 8.19141L19.2063 8.5943C19.5873 6.74149 19.1127 4.70679 17.7449 3.23725L16.2809 4.59989Z" fill="#020202"/>
</g>
</svg>
