<svg width="14" height="14" viewBox="0 0 14 14" fill="none" xmlns="http://www.w3.org/2000/svg">
<g id="Icon">
<path id="Icon_2" d="M4.84959 6.70245L1.66293 3.80548C1.34676 3.51805 1.1665 3.11058 1.1665 2.68329C1.1665 1.84569 1.84551 1.16669 2.68311 1.16669H11.3166C12.1542 1.16669 12.8332 1.84569 12.8332 2.68329C12.8332 3.11058 12.6529 3.51805 12.3367 3.80548L9.15008 6.70245C8.94161 6.89197 8.82275 7.16065 8.82275 7.44239V8.95544C8.82275 9.563 8.54657 10.1376 8.07214 10.5172L6.80162 11.5336C6.14685 12.0574 5.17692 11.5912 5.17692 10.7527V7.44239C5.17692 7.16065 5.05807 6.89197 4.84959 6.70245Z" stroke="#020202" stroke-width="1.5"/>
</g>
</svg>
