<svg width="20" height="20" viewBox="0 0 20 20" fill="none" xmlns="http://www.w3.org/2000/svg">
<path d="M2.37633 11.3577C1.63617 10.5603 1.16517 9.59028 0.957261 8.57822L0.956903 8.57648C0.947019 8.52829 0.937729 8.47999 0.929033 8.43161C0.611435 6.6644 1.08364 4.74817 2.37633 3.35555C4.46656 1.10373 7.88303 1.10373 9.97326 3.35555L10 3.3844L10.0268 3.35555C12.117 1.10373 15.5335 1.10373 17.6237 3.35555C18.9515 4.78598 19.4139 6.76883 19.0432 8.57648C18.8355 9.58909 18.3643 10.5599 17.6237 11.3577L11.8859 17.5391C10.9029 18.5981 9.09715 18.5981 8.11419 17.5391L2.37633 11.3577Z" fill="#FD3333"/>
</svg>
