<svg width="24" height="24" viewBox="0 0 24 24" fill="none" xmlns="http://www.w3.org/2000/svg">
<path d="M23.5 17.55C23.5 19.7868 19.7206 21.6 14.75 21.6C9.77944 21.6 6 19.7868 6 17.55C6 13.7455 9.77944 11.7818 14.75 11.7818C19.7206 11.7818 23.5 13.7455 23.5 17.55Z" fill="#A8BA66" fill-opacity="0.15"/>
<path d="M18.6875 3.92727C18.6875 6.38182 17.0346 7.85455 14.75 7.85455C12.4654 7.85455 10.8125 6.38182 10.8125 3.92727C10.8125 1.47273 12.5625 0 14.75 0C16.9375 0 18.6875 1.47273 18.6875 3.92727Z" fill="#A8BA66" fill-opacity="0.15"/>
<path d="M20.75 18.7499C20.75 20.9867 16.9706 22.8 12 22.8C7.02944 22.8 3.25 20.9867 3.25 18.7499C3.25 14.9454 7.02944 12.9818 12 12.9818C16.9706 12.9818 20.75 14.9454 20.75 18.7499Z" stroke="#A8BA66" stroke-width="2" stroke-linejoin="round"/>
<path d="M15.9375 5.12722C15.9375 7.58177 14.2846 9.0545 12 9.0545C9.71538 9.0545 8.0625 7.58177 8.0625 5.12722C8.0625 2.67268 9.8125 1.19995 12 1.19995C14.1875 1.19995 15.9375 2.67268 15.9375 5.12722Z" stroke="#A8BA66" stroke-width="2" stroke-linejoin="round"/>
</svg>
