<svg width="24" height="24" viewBox="0 0 24 24" fill="none" xmlns="http://www.w3.org/2000/svg">
<path d="M12 5.52422L11.268 6.20555C11.4572 6.40879 11.7223 6.52422 12 6.52422C12.2777 6.52422 12.5428 6.40879 12.732 6.20555L12 5.52422ZM12.765 4.70229L12.0331 4.02097V4.02097L12.765 4.70229ZM11.235 4.70229L11.9669 4.02097V4.02097L11.235 4.70229ZM3.58447 12.9217L4.31645 12.2403L3.58447 12.9217ZM10.4699 20.3191L9.73792 21.0004L10.4699 20.3191ZM20.4155 4.70229L21.1475 4.02097V4.02097L20.4155 4.70229ZM3.58447 4.70229L2.85248 4.02096L3.58447 4.70229ZM17.25 21C17.25 21.5523 17.6977 22 18.25 22C18.8023 22 19.25 21.5523 19.25 21H17.25ZM19.25 13.2857C19.25 12.7334 18.8023 12.2857 18.25 12.2857C17.6977 12.2857 17.25 12.7334 17.25 13.2857H19.25ZM14.5 16.1429C13.9477 16.1429 13.5 16.5906 13.5 17.1429C13.5 17.6951 13.9477 18.1429 14.5 18.1429V16.1429ZM22 18.1429C22.5523 18.1429 23 17.6951 23 17.1429C23 16.5906 22.5523 16.1429 22 16.1429V18.1429ZM11.0676 21.853C11.5932 22.0227 12.1568 21.7343 12.3266 21.2088C12.4964 20.6832 12.2079 20.1196 11.6824 19.9498L11.0676 21.853ZM20.8927 9.86998C20.7814 10.4109 21.1297 10.9397 21.6707 11.0509C22.2117 11.1622 22.7404 10.8138 22.8517 10.2729L20.8927 9.86998ZM12.732 6.20555L13.497 5.38361L12.0331 4.02097L11.268 4.8429L12.732 6.20555ZM10.503 5.38361L11.268 6.20555L12.732 4.8429L11.9669 4.02097L10.503 5.38361ZM2.85248 13.603L9.73792 21.0004L11.2019 19.6378L4.31645 12.2403L2.85248 13.603ZM21.1475 4.02097C18.6394 1.32635 14.5412 1.32634 12.0331 4.02097L13.497 5.38361C15.2142 3.5388 17.9664 3.5388 19.6835 5.38361L21.1475 4.02097ZM4.31645 5.38361C6.03358 3.5388 8.78584 3.5388 10.503 5.38361L11.9669 4.02097C9.45882 1.32635 5.3606 1.32634 2.85248 4.02096L4.31645 5.38361ZM2.85248 4.02096C0.382506 6.67461 0.382505 10.9493 2.85248 13.603L4.31645 12.2403C2.56118 10.3545 2.56118 7.2694 4.31645 5.38361L2.85248 4.02096ZM19.25 21V17.1429H17.25V21H19.25ZM19.25 17.1429V13.2857H17.25V17.1429H19.25ZM18.25 16.1429H14.5V18.1429H18.25V16.1429ZM18.25 18.1429H22V16.1429H18.25V18.1429ZM9.73792 21.0004C10.1149 21.4054 10.5728 21.6931 11.0676 21.853L11.6824 19.9498C11.5146 19.8956 11.3483 19.7951 11.2019 19.6378L9.73792 21.0004ZM19.6835 5.38361C20.8024 6.58565 21.218 8.28823 20.8927 9.86998L22.8517 10.2729C23.2969 8.10783 22.7414 5.73338 21.1475 4.02097L19.6835 5.38361Z" fill="#020202"/>
</svg>
