<svg width="20" height="20" viewBox="0 0 20 20" fill="none" xmlns="http://www.w3.org/2000/svg">
<path d="M3.38776 2.08341L4.36719 1.88163C4.28909 1.50254 3.99925 1.20257 3.62307 1.11149L3.38776 2.08341ZM1.90206 0.694827C1.36528 0.56487 0.824784 0.894664 0.694827 1.43144C0.56487 1.96822 0.894664 2.50871 1.43144 2.63867L1.90206 0.694827ZM5.9695 16.6401L4.96963 16.6239L5.9695 16.6401ZM17.6296 9.10171L18.6045 9.32427L17.6296 9.10171ZM18.2919 6.20065L17.3169 5.97809L18.2919 6.20065ZM3.62307 1.11149L1.90206 0.694827L1.43144 2.63867L3.15246 3.05534L3.62307 1.11149ZM4.79745 3.96997L4.36719 1.88163L2.40833 2.2852L2.83859 4.37355L4.79745 3.96997ZM15.2954 16.6667C15.2954 17.0049 15.0031 17.3334 14.5744 17.3334V19.3334C16.0466 19.3334 17.2954 18.1695 17.2954 16.6667H15.2954ZM14.5744 17.3334C14.1457 17.3334 13.8533 17.0049 13.8533 16.6667H11.8533C11.8533 18.1695 13.1021 19.3334 14.5744 19.3334V17.3334ZM13.8533 16.6667C13.8533 16.3286 14.1457 16.0001 14.5744 16.0001V14.0001C13.1021 14.0001 11.8533 15.164 11.8533 16.6667H13.8533ZM14.5744 16.0001C15.0031 16.0001 15.2954 16.3286 15.2954 16.6667H17.2954C17.2954 15.164 16.0466 14.0001 14.5744 14.0001V16.0001ZM8.41132 16.6667C8.41132 17.0049 8.119 17.3334 7.6903 17.3334V19.3334C9.16259 19.3334 10.4113 18.1695 10.4113 16.6667H8.41132ZM7.6903 17.3334C7.26161 17.3334 6.96929 17.0049 6.96929 16.6667H4.96929C4.96929 18.1695 6.21802 19.3334 7.6903 19.3334V17.3334ZM7.6903 16.0001C8.119 16.0001 8.41132 16.3286 8.41132 16.6667H10.4113C10.4113 15.164 9.16259 14.0001 7.6903 14.0001V16.0001ZM6.96929 16.6667C6.96929 16.6632 6.96931 16.6598 6.96937 16.6563L4.96963 16.6239C4.9694 16.6382 4.96929 16.6524 4.96929 16.6667H6.96929ZM6.96937 16.6563C6.97478 16.3224 7.2661 16.0001 7.6903 16.0001V14.0001C6.23191 14.0001 4.99364 15.1414 4.96963 16.6239L6.96937 16.6563ZM9.41132 17.6667H12.8533V15.6667H9.41132V17.6667ZM2.83236 4.34052L4.12312 11.8794L6.09444 11.5418L4.80367 4.003L2.83236 4.34052ZM17.3169 5.97809L16.6547 8.87915L18.6045 9.32427L19.2668 6.42321L17.3169 5.97809ZM3.81802 5.17176H16.6239V3.17176H3.81802V5.17176ZM5.10878 12.7106H14.2936V10.7106H5.10878V12.7106ZM5.96929 15.6667H5.92852V17.6667H5.96929V15.6667ZM4.38776 14.1887V13.3892H2.38776V14.1887H4.38776ZM4.38776 13.3892C4.38776 13.0378 4.68688 12.7106 5.10878 12.7106V10.7106C3.6297 10.7106 2.38776 11.8864 2.38776 13.3892H4.38776ZM5.92852 15.6667C5.05389 15.6667 4.38776 14.9816 4.38776 14.1887H2.38776C2.38776 16.133 3.99671 17.6667 5.92852 17.6667V15.6667ZM16.6547 8.87915C16.4141 9.93313 15.4447 10.7106 14.2936 10.7106V12.7106C16.3452 12.7106 18.1491 11.3193 18.6045 9.32427L16.6547 8.87915ZM19.2668 6.42321C19.6544 4.72527 18.3274 3.17176 16.6239 3.17176V5.17176C17.1073 5.17176 17.4046 5.59395 17.3169 5.97809L19.2668 6.42321Z" fill="#A8BA66"/>
</svg>
