<svg width="25" height="24" viewBox="0 0 25 24" fill="none" xmlns="http://www.w3.org/2000/svg">
<path d="M24.6 8.5V17.6C24.6 19.8091 22.8091 21.6 20.6 21.6H7C4.79087 21.6 3 19.8091 3 17.6V4.5V4C3 1.79086 4.79086 0 7 0H15.2C17.4091 0 19.2 1.79086 19.2 4V4.5H20.6C22.8091 4.5 24.6 6.29086 24.6 8.5Z" fill="#A8BA66" fill-opacity="0.15"/>
<path d="M17.4 5.69995H16.4V6.69995H17.4V5.69995ZM21.8 9.69995V18.8H23.8V9.69995H21.8ZM18.8 6.69995C20.4569 6.69995 21.8 8.0431 21.8 9.69995H23.8C23.8 6.93853 21.5614 4.69995 18.8 4.69995V6.69995ZM17.4 6.69995H18.8V4.69995H17.4V6.69995ZM16.4 5.19995V5.69995H18.4V5.19995H16.4ZM13.4 2.19995C15.0569 2.19995 16.4 3.5431 16.4 5.19995H18.4C18.4 2.43853 16.1614 0.199951 13.4 0.199951V2.19995ZM5.20001 2.19995H13.4V0.199951H5.20001V2.19995ZM2.20001 5.19995C2.20001 3.5431 3.54316 2.19995 5.20001 2.19995V0.199951C2.43859 0.199951 0.200012 2.43853 0.200012 5.19995H2.20001ZM2.20001 5.69995V5.19995H0.200012V5.69995H2.20001ZM2.20001 18.8V5.69995H0.200012V18.8H2.20001ZM5.20002 21.8C3.54316 21.8 2.20001 20.4568 2.20001 18.8H0.200012C0.200012 21.5614 2.43859 23.8 5.20002 23.8V21.8ZM18.8 21.8H5.20002V23.8H18.8V21.8ZM21.8 18.8C21.8 20.4568 20.4569 21.8 18.8 21.8V23.8C21.5614 23.8 23.8 21.5614 23.8 18.8H21.8ZM17.3 14.7C17.3 15.1418 16.9418 15.5 16.5 15.5V17.5C18.0464 17.5 19.3 16.2464 19.3 14.7H17.3ZM16.5 13.9C16.9418 13.9 17.3 14.2582 17.3 14.7H19.3C19.3 13.1536 18.0464 11.9 16.5 11.9V13.9ZM15.7 14.7C15.7 14.2582 16.0582 13.9 16.5 13.9V11.9C14.9536 11.9 13.7 13.1536 13.7 14.7H15.7ZM16.5 15.5C16.0582 15.5 15.7 15.1418 15.7 14.7H13.7C13.7 16.2464 14.9536 17.5 16.5 17.5V15.5ZM17.4 4.69995H1.20001V6.69995H17.4V4.69995Z" fill="#A8BA66"/>
</svg>
