<svg width="16" height="14" viewBox="0 0 16 14" fill="none" xmlns="http://www.w3.org/2000/svg">
<path d="M7.99967 2.68282L7.26769 3.36414C7.45686 3.56738 7.72202 3.68282 7.99967 3.68282C8.27733 3.68282 8.54249 3.56738 8.73166 3.36414L7.99967 2.68282ZM8.50971 2.13486L7.77772 1.45354V1.45354L8.50971 2.13486ZM7.48964 2.13486L8.22163 1.45354V1.45354L7.48964 2.13486ZM2.38932 7.61444L3.1213 6.93312L2.38932 7.61444ZM6.97961 12.5461L6.24762 13.2274L6.97961 12.5461ZM13.61 2.13486L14.342 1.45354V1.45354L13.61 2.13486ZM2.38932 2.13486L1.65734 1.45354L2.38932 2.13486ZM11.1663 13C11.1663 13.5523 11.6141 14 12.1663 14C12.7186 14 13.1663 13.5523 13.1663 13H11.1663ZM13.1663 7.85714C13.1663 7.30486 12.7186 6.85714 12.1663 6.85714C11.6141 6.85714 11.1663 7.30486 11.1663 7.85714H13.1663ZM9.66634 9.42857C9.11406 9.42857 8.66634 9.87629 8.66634 10.4286C8.66634 10.9809 9.11406 11.4286 9.66634 11.4286V9.42857ZM14.6663 11.4286C15.2186 11.4286 15.6663 10.9809 15.6663 10.4286C15.6663 9.87629 15.2186 9.42857 14.6663 9.42857V11.4286ZM7.27562 13.8858C7.80116 14.0556 8.36483 13.7672 8.53459 13.2416C8.70436 12.7161 8.41594 12.1524 7.8904 11.9827L7.27562 13.8858ZM13.6016 5.51284C13.4904 6.0538 13.8387 6.58253 14.3797 6.69379C14.9206 6.80504 15.4494 6.45669 15.5606 5.91573L13.6016 5.51284ZM8.73166 3.36414L9.24169 2.81618L7.77772 1.45354L7.26769 2.0015L8.73166 3.36414ZM6.75766 2.81618L7.26769 3.36414L8.73166 2.0015L8.22163 1.45354L6.75766 2.81618ZM1.65733 8.29576L6.24762 13.2274L7.71159 11.8647L3.1213 6.93312L1.65733 8.29576ZM14.342 1.45354C12.5381 -0.484512 9.58163 -0.484512 7.77772 1.45354L9.24169 2.81618C10.2546 1.72794 11.8651 1.72794 12.878 2.81618L14.342 1.45354ZM3.1213 2.81618C4.13422 1.72794 5.74474 1.72794 6.75766 2.81618L8.22163 1.45354C6.41772 -0.484512 3.46125 -0.484513 1.65734 1.45354L3.1213 2.81618ZM1.65734 1.45354C-0.108434 3.35061 -0.108435 6.39869 1.65733 8.29576L3.1213 6.93312C2.07024 5.8039 2.07024 3.9454 3.1213 2.81618L1.65734 1.45354ZM13.1663 13V10.4286H11.1663V13H13.1663ZM13.1663 10.4286V7.85714H11.1663V10.4286H13.1663ZM12.1663 9.42857H9.66634V11.4286H12.1663V9.42857ZM12.1663 11.4286H14.6663V9.42857H12.1663V11.4286ZM6.24762 13.2274C6.53739 13.5387 6.89126 13.7617 7.27562 13.8858L7.8904 11.9827C7.83306 11.9642 7.77081 11.9284 7.71159 11.8647L6.24762 13.2274ZM12.878 2.81618C13.5448 3.53248 13.7985 4.55556 13.6016 5.51284L15.5606 5.91573C15.8774 4.37515 15.4838 2.68021 14.342 1.45354L12.878 2.81618Z" fill="#A8BA66"/>
</svg>
