<svg width="18" height="16" viewBox="0 0 18 16" fill="none" xmlns="http://www.w3.org/2000/svg">
<path d="M2.90028 9.08614C2.30816 8.44823 1.93135 7.67221 1.76503 6.86255L1.76474 6.86116C1.75683 6.82261 1.7494 6.78397 1.74245 6.74527C1.48837 5.3315 1.86613 3.79852 2.90028 2.68442C4.57247 0.882963 7.30564 0.882964 8.97782 2.68442L8.99925 2.7075L9.02067 2.68442C10.6929 0.882964 13.426 0.882965 15.0982 2.68442C16.1604 3.82876 16.5304 5.41504 16.2338 6.86117C16.0676 7.67125 15.6907 8.44789 15.0982 9.08614L10.5079 14.0313C9.72156 14.8785 8.27694 14.8785 7.49057 14.0313L2.90028 9.08614Z" stroke="#A8BA66" stroke-width="1.5" stroke-linecap="round"/>
</svg>
