<svg width="16" height="14" viewBox="0 0 16 14" fill="none" xmlns="http://www.w3.org/2000/svg">
<path d="M1.90028 8.08614C1.30816 7.44824 0.931352 6.67221 0.765027 5.86256L0.764741 5.86117C0.756834 5.82261 0.749402 5.78398 0.742445 5.74527C0.488366 4.3315 0.866133 2.79852 1.90028 1.68442C3.57247 -0.117033 6.30564 -0.117032 7.97782 1.68443L7.99925 1.7075L8.02067 1.68443C9.69285 -0.117032 12.426 -0.117032 14.0982 1.68443C15.1604 2.82876 15.5304 4.41505 15.2338 5.86117C15.0676 6.67126 14.6907 7.44789 14.0982 8.08614L9.50792 13.0313C8.72156 13.8785 7.27694 13.8785 6.49057 13.0313L1.90028 8.08614Z" fill="white"/>
</svg>
