<svg width="23" height="24" viewBox="0 0 23 24" fill="none" xmlns="http://www.w3.org/2000/svg">
<path d="M14.3414 1.3029L15.0437 2.01482L15.0582 2.00054L15.072 1.98568L14.3414 1.3029ZM1.42911 14.0401L0.726852 13.3281L0.712373 13.3424L0.698487 13.3573L1.42911 14.0401ZM8.82384 15.0254L9.81379 15.1668L9.81506 15.1579L9.81617 15.149L8.82384 15.0254ZM7.76975 22.4051L6.7798 22.2637L6.77853 22.2725L6.77743 22.2814L7.76975 22.4051ZM8.32558 22.6955L7.62331 21.9836L7.60884 21.9979L7.59495 22.0128L8.32558 22.6955ZM21.2379 9.95839L21.9401 10.6703L21.9546 10.656L21.9685 10.6412L21.2379 9.95839ZM13.8431 8.97306L12.8532 8.83166C12.8524 8.83757 12.8516 8.84349 12.8508 8.84942L13.8431 8.97306ZM14.8972 1.59338L15.8872 1.73479L15.8885 1.72592L15.8896 1.71703L14.8972 1.59338ZM13.6391 0.590984L0.726852 13.3281L2.13138 14.752L15.0437 2.01482L13.6391 0.590984ZM1.66096 15.6323H8.49986V13.6323H1.66096V15.6323ZM7.83389 14.884L6.7798 22.2637L8.75971 22.5465L9.81379 15.1668L7.83389 14.884ZM9.02784 23.4075L21.9401 10.6703L20.5356 9.24647L7.62331 21.9836L9.02784 23.4075ZM21.006 8.36611H14.1671V10.3661H21.006V8.36611ZM14.8331 9.11446L15.8872 1.73479L13.9073 1.45198L12.8532 8.83166L14.8331 9.11446ZM14.1671 8.36611C14.6385 8.36611 14.8753 8.77723 14.8355 9.09671L12.8508 8.84942C12.7591 9.58525 13.3007 10.3661 14.1671 10.3661V8.36611ZM21.9685 10.6412C22.3653 10.2166 22.409 9.64987 22.239 9.21554C22.0679 8.7785 21.6304 8.36611 21.006 8.36611V10.3661C20.6723 10.3661 20.4532 10.1403 20.3766 9.94456C20.301 9.75158 20.3153 9.481 20.5072 9.27561L21.9685 10.6412ZM6.77743 22.2814C6.70294 22.8792 7.01713 23.4035 7.48638 23.6487C7.96555 23.8992 8.61225 23.8534 9.0562 23.3783L7.59495 22.0128C7.81836 21.7737 8.16661 21.7476 8.41273 21.8762C8.64893 21.9996 8.79547 22.2607 8.76208 22.5287L6.77743 22.2814ZM8.49986 15.6323C8.02851 15.6323 7.79171 15.2212 7.83152 14.9017L9.81617 15.149C9.90785 14.4132 9.3663 13.6323 8.49986 13.6323V15.6323ZM0.698487 13.3573C0.301717 13.7819 0.258018 14.3486 0.428036 14.7829C0.599113 15.2199 1.03658 15.6323 1.66096 15.6323V13.6323C1.9947 13.6323 2.21383 13.8582 2.29043 14.0539C2.36598 14.2469 2.35167 14.5174 2.15974 14.7228L0.698487 13.3573ZM15.072 1.98568C14.8486 2.22474 14.5004 2.25087 14.2543 2.12224C14.0181 1.9988 13.8715 1.73772 13.9049 1.46974L15.8896 1.71703C15.964 1.11926 15.6499 0.594946 15.1806 0.34971C14.7014 0.0992875 14.0547 0.145066 13.6108 0.620124L15.072 1.98568Z" fill="#A8BA66"/>
</svg>
