<svg width="14" height="16" viewBox="0 0 14 16" fill="none" xmlns="http://www.w3.org/2000/svg">
<path fill-rule="evenodd" clip-rule="evenodd" d="M13 7.13065C13 7.77825 12.8901 8.40104 12.6873 8.98257C11.9502 11.1841 10.0606 12.9926 8.66063 14.0907C7.68054 14.8595 6.31946 14.8595 5.33937 14.0907C3.93942 12.9926 2.04983 11.1841 1.31271 8.98254C1.10992 8.40102 1 7.77824 1 7.13065C1 3.92924 3.68629 1.33398 7 1.33398C10.3137 1.33398 13 3.92924 13 7.13065ZM7.0014 9.28369C8.38211 9.28369 9.5014 8.17144 9.5014 6.79941C9.5014 5.42737 8.38211 4.31512 7.0014 4.31512C5.62068 4.31512 4.5014 5.42737 4.5014 6.79941C4.5014 8.17144 5.62068 9.28369 7.0014 9.28369Z" stroke="#020202" stroke-width="1.5"/>
</svg>
