<svg width="20" height="20" viewBox="0 0 20 20" fill="none" xmlns="http://www.w3.org/2000/svg">
<path d="M1.66667 3.33332C1.66667 2.41285 2.41286 1.66666 3.33334 1.66666H6.66667C7.58714 1.66666 8.33333 2.41285 8.33333 3.33332V6.66666C8.33333 7.58713 7.58714 8.33332 6.66667 8.33332H3.33334C2.41286 8.33332 1.66667 7.58713 1.66667 6.66666V3.33332Z" fill="#A8BA66"/>
<path d="M1.66667 13.3333C1.66667 12.4128 2.41286 11.6667 3.33334 11.6667H6.66667C7.58714 11.6667 8.33333 12.4128 8.33333 13.3333V16.6667C8.33333 17.5871 7.58714 18.3333 6.66667 18.3333H3.33334C2.41286 18.3333 1.66667 17.5871 1.66667 16.6667V13.3333Z" fill="#A8BA66"/>
<path d="M11.6667 3.33332C11.6667 2.41285 12.4129 1.66666 13.3333 1.66666H16.6667C17.5871 1.66666 18.3333 2.41285 18.3333 3.33332V6.66666C18.3333 7.58713 17.5871 8.33332 16.6667 8.33332H13.3333C12.4129 8.33332 11.6667 7.58713 11.6667 6.66666V3.33332Z" fill="#A8BA66"/>
<path d="M18.3333 15C18.3333 16.8409 16.8409 18.3333 15 18.3333C13.159 18.3333 11.6667 16.8409 11.6667 15C11.6667 13.159 13.159 11.6667 15 11.6667C16.8409 11.6667 18.3333 13.159 18.3333 15Z" fill="#A8BA66"/>
<path d="M1.66667 3.33332C1.66667 2.41285 2.41286 1.66666 3.33334 1.66666H6.66667C7.58714 1.66666 8.33333 2.41285 8.33333 3.33332V6.66666C8.33333 7.58713 7.58714 8.33332 6.66667 8.33332H3.33334C2.41286 8.33332 1.66667 7.58713 1.66667 6.66666V3.33332Z" stroke="#A8BA66" stroke-width="2"/>
<path d="M1.66667 13.3333C1.66667 12.4128 2.41286 11.6667 3.33334 11.6667H6.66667C7.58714 11.6667 8.33333 12.4128 8.33333 13.3333V16.6667C8.33333 17.5871 7.58714 18.3333 6.66667 18.3333H3.33334C2.41286 18.3333 1.66667 17.5871 1.66667 16.6667V13.3333Z" stroke="#A8BA66" stroke-width="2"/>
<path d="M11.6667 3.33332C11.6667 2.41285 12.4129 1.66666 13.3333 1.66666H16.6667C17.5871 1.66666 18.3333 2.41285 18.3333 3.33332V6.66666C18.3333 7.58713 17.5871 8.33332 16.6667 8.33332H13.3333C12.4129 8.33332 11.6667 7.58713 11.6667 6.66666V3.33332Z" stroke="#A8BA66" stroke-width="2"/>
<path d="M18.3333 15C18.3333 16.8409 16.8409 18.3333 15 18.3333C13.159 18.3333 11.6667 16.8409 11.6667 15C11.6667 13.159 13.159 11.6667 15 11.6667C16.8409 11.6667 18.3333 13.159 18.3333 15Z" stroke="#A8BA66" stroke-width="2"/>
</svg>
