<svg width="20" height="20" viewBox="0 0 20 20" fill="none" xmlns="http://www.w3.org/2000/svg">
<path d="M1.66675 3.33341C1.66675 2.41294 2.41294 1.66675 3.33341 1.66675H6.66674C7.58722 1.66675 8.33341 2.41294 8.33341 3.33341V6.66675C8.33341 7.58722 7.58722 8.33342 6.66674 8.33342H3.33341C2.41294 8.33342 1.66675 7.58722 1.66675 6.66675V3.33341Z" stroke="#020202" stroke-width="2"/>
<path d="M1.66675 13.3334C1.66675 12.4129 2.41294 11.6667 3.33341 11.6667H6.66674C7.58722 11.6667 8.33341 12.4129 8.33341 13.3334V16.6667C8.33341 17.5872 7.58722 18.3334 6.66674 18.3334H3.33341C2.41294 18.3334 1.66675 17.5872 1.66675 16.6667V13.3334Z" stroke="#020202" stroke-width="2"/>
<path d="M11.6667 3.33341C11.6667 2.41294 12.4129 1.66675 13.3334 1.66675H16.6667C17.5872 1.66675 18.3334 2.41294 18.3334 3.33341V6.66675C18.3334 7.58722 17.5872 8.33342 16.6667 8.33342H13.3334C12.4129 8.33342 11.6667 7.58722 11.6667 6.66675V3.33341Z" stroke="#020202" stroke-width="2"/>
<path d="M18.3334 15.0001C18.3334 16.841 16.841 18.3334 15.0001 18.3334C13.1591 18.3334 11.6667 16.841 11.6667 15.0001C11.6667 13.1591 13.1591 11.6667 15.0001 11.6667C16.841 11.6667 18.3334 13.1591 18.3334 15.0001Z" stroke="#020202" stroke-width="2"/>
</svg>
