<svg width="25" height="24" viewBox="0 0 25 24" fill="none" xmlns="http://www.w3.org/2000/svg">
<path d="M3.63038 10.8182V20.6364C3.63038 21.7209 4.50953 22.6 5.59402 22.6H10.5031M3.63038 10.8182H10.5031M3.63038 10.8182C2.5459 10.8182 1.66675 9.93903 1.66675 8.85455C1.66675 7.77006 2.5459 6.89091 3.63038 6.89091H10.5031M21.3031 10.8182V20.6364C21.3031 21.7209 20.424 22.6 19.3395 22.6H14.4304M21.3031 10.8182H14.4304M21.3031 10.8182C22.3876 10.8182 23.2667 9.93903 23.2667 8.85455C23.2667 7.77006 22.3876 6.89091 21.3031 6.89091H14.4304M14.4304 10.8182V22.6M14.4304 10.8182H10.5031M14.4304 10.8182V6.89091M14.4304 22.6H10.5031M10.5031 10.8182V22.6M10.5031 10.8182V6.89091M10.5031 6.89091H14.4304M8.53948 6.89091C6.91275 6.89091 5.59402 5.57218 5.59402 3.94545C5.59402 2.31872 6.91275 1 8.53948 1C10.1753 1 11.015 2.77562 11.5592 4.3183L12.4667 6.89091L13.3743 4.3183C13.9185 2.77562 14.7582 1 16.394 1C18.0208 1 19.3395 2.31872 19.3395 3.94545C19.3395 5.57218 18.0208 6.89091 16.394 6.89091" stroke="#A8BA66" stroke-width="2" stroke-linejoin="round"/>
</svg>
