<svg width="18" height="18" viewBox="0 0 18 18" fill="none" xmlns="http://www.w3.org/2000/svg">
<path d="M4.66797 13.6667H3.66797C2.5634 13.6667 1.66797 12.7713 1.66797 11.6667V7.66669C1.66797 6.56212 2.5634 5.66669 3.66797 5.66669H4.66797M4.66797 13.6667V14.3334C4.66797 15.4379 5.5634 16.3334 6.66797 16.3334H11.3346C12.4392 16.3334 13.3346 15.4379 13.3346 14.3334V13.6667M4.66797 13.6667V11.6667M13.3346 13.6667H14.3346C15.4392 13.6667 16.3346 12.7713 16.3346 11.6667V7.66669C16.3346 6.56212 15.4392 5.66669 14.3346 5.66669H13.3346M13.3346 13.6667V11.6667M4.66797 11.6667H13.3346M4.66797 11.6667H4.0013M13.3346 11.6667H14.0013M6.66797 13.6667H11.3346M4.66797 5.66669V3.66669C4.66797 2.56212 5.5634 1.66669 6.66797 1.66669H11.3346C12.4392 1.66669 13.3346 2.56212 13.3346 3.66669V5.66669M4.66797 5.66669H13.3346M4.0013 8.00002H5.33464" stroke="#A8BA66" stroke-width="1.5" stroke-linecap="round"/>
</svg>
