<svg width="16" height="16" viewBox="0 0 16 16" fill="none" xmlns="http://www.w3.org/2000/svg">
<path d="M14.4154 7.99998C14.4154 11.5438 11.5425 14.4166 7.9987 14.4166C6.0472 14.4166 4.29917 13.5455 3.1223 12.1708M1.58203 7.99998C1.58203 4.45615 4.45487 1.58331 7.9987 1.58331C9.91518 1.58331 11.6354 2.4235 12.8112 3.75564M13.132 2.86665V4.14998H11.8487M2.86536 13.1333V11.85H4.1487M6.01872 8.41317L4.74048 7.90644C4.53741 7.82593 4.44196 7.57702 4.53368 7.36716L4.95609 6.40066C5.30738 5.5969 6.06183 5.08331 6.89125 5.08331H6.9086C6.96169 5.08331 7.01198 5.1088 7.04559 5.15276L7.30953 5.49785C7.47865 5.71896 7.73163 5.8472 7.9987 5.8472C8.26577 5.8472 8.51874 5.71896 8.68786 5.49785L8.9518 5.15276C8.98542 5.1088 9.0357 5.08331 9.08879 5.08331H9.10615C9.93557 5.08331 10.69 5.5969 11.0413 6.40066L11.4637 7.36716C11.5554 7.57702 11.46 7.82593 11.2569 7.90644L9.97867 8.41317M6.01872 8.41317V7.21005M6.01872 8.41317V10.4305C6.01872 10.699 6.22217 10.9166 6.47314 10.9166H9.52426C9.77523 10.9166 9.97868 10.699 9.97868 10.4305L9.97867 8.41317M6.01872 8.41317L6.01873 8.9722M9.97867 8.41317V7.21005" stroke="white" stroke-width="1.5" stroke-linecap="round" stroke-linejoin="round"/>
</svg>
