<svg width="16" height="16" viewBox="0 0 16 16" fill="none" xmlns="http://www.w3.org/2000/svg">
<g opacity="0.4">
<path d="M5.11719 9.82422H10.8828C11.0629 9.82422 11.1745 9.91921 11.2236 10.0332C11.2714 10.1442 11.2586 10.2639 11.1504 10.3682L8.26758 13.1455C8.12272 13.2847 7.87728 13.2847 7.73242 13.1455L4.84961 10.3682C4.74136 10.2639 4.72863 10.1442 4.77637 10.0332C4.82551 9.91921 4.9371 9.82422 5.11719 9.82422ZM7.73242 2.85449C7.87728 2.71528 8.12272 2.71528 8.26758 2.85449L11.1504 5.63184C11.2586 5.73613 11.2714 5.85576 11.2236 5.9668C11.1745 6.08079 11.0629 6.17578 10.8828 6.17578H5.11719C4.9371 6.17578 4.82551 6.08079 4.77637 5.9668C4.72863 5.85576 4.74136 5.73613 4.84961 5.63184L7.73242 2.85449Z" fill="#020202" stroke="#020202" stroke-width="1.5"/>
</g>
</svg>
