<svg width="8" height="12" viewBox="0 0 8 12" fill="none" xmlns="http://www.w3.org/2000/svg">
<path d="M1.11719 7.82422H6.88281C7.0629 7.82422 7.17449 7.91921 7.22363 8.0332C7.27137 8.14424 7.25864 8.26387 7.15039 8.36816L4.26758 11.1455C4.12272 11.2847 3.87728 11.2847 3.73242 11.1455L0.849609 8.36816C0.741361 8.26387 0.728632 8.14424 0.776367 8.0332C0.825509 7.91921 0.9371 7.82422 1.11719 7.82422ZM3.73242 0.854492C3.87728 0.715278 4.12272 0.715279 4.26758 0.854492L7.15039 3.63184C7.25864 3.73613 7.27137 3.85576 7.22363 3.9668C7.17449 4.08079 7.0629 4.17578 6.88281 4.17578H1.11719C0.9371 4.17578 0.825508 4.08079 0.776367 3.9668C0.728632 3.85576 0.741361 3.73613 0.849609 3.63184L3.73242 0.854492Z" fill="#020202" stroke="#020202" stroke-width="1.5"/>
</svg>
