<svg width="26" height="22" viewBox="0 0 26 22" fill="none" xmlns="http://www.w3.org/2000/svg">
<path d="M15.4 18.3262V18.321V5.81283M15.4 18.3262H17.1455M15.4 18.3262L9.72727 18.321M22.6 18.3262C23.9255 18.3262 25 17.6283 25 16.1624V11.7111C25 10.9775 24.7254 10.2765 24.2415 9.77476L20.8924 6.5307C20.4476 6.0695 19.8607 5.81283 19.2509 5.81283H15.4M22.6 18.3262C22.6 19.8029 21.379 21 19.8727 21C18.3665 21 17.1455 19.8029 17.1455 18.3262M22.6 18.3262C22.6 16.8495 21.379 15.6524 19.8727 15.6524C18.3665 15.6524 17.1455 16.8495 17.1455 18.3262M15.4 5.81283V3.65423C15.4 2.18834 14.3255 1 13 1H3.4C2.07452 1 1 2.18834 1 3.65423V15.6668C1 17.1327 2.07452 18.321 3.4 18.321H4.27273M9.72727 18.321C9.72727 19.7977 8.50623 20.9948 7 20.9948C5.49377 20.9948 4.27273 19.7977 4.27273 18.321M9.72727 18.321C9.72727 16.8443 8.50623 15.6472 7 15.6472C5.49377 15.6472 4.27273 16.8443 4.27273 18.321" stroke="#A8BA66" stroke-width="2"/>
</svg>
