<svg width="18" height="15" viewBox="0 0 18 15" fill="none" xmlns="http://www.w3.org/2000/svg">
<path d="M9.0013 1H3.13464C2.32462 1 1.66797 1.74073 1.66797 2.65447V10.1423C1.66797 11.056 2.32462 11.7968 3.13464 11.7968H3.66797C3.66797 10.8763 4.41416 10.1301 5.33464 10.1301C6.25511 10.1301 7.0013 10.8763 7.0013 11.7968L10.468 11.8V11.7968V7.6766V4V2.65447C10.468 1.74073 9.81132 1 9.0013 1Z" fill="#A8BA66"/>
<path fill-rule="evenodd" clip-rule="evenodd" d="M16.3346 7.6766V10.4512C16.3346 11.365 15.678 11.8 14.868 11.8C14.868 10.8795 14.1218 10.1333 13.2013 10.1333C12.2808 10.1333 11.5346 10.8795 11.5346 11.8H10.468V11.7968V7.6766H16.3346Z" fill="#A8BA66"/>
<path d="M16.3346 7.6766V10.4512C16.3346 11.365 15.678 11.8 14.868 11.8M16.3346 7.6766C16.3346 7.21929 16.1668 6.78237 15.8711 6.4696L13.8244 4.44747C13.5526 4.15999 13.1939 4 12.8213 4H10.468M16.3346 7.6766H10.468M10.468 11.8V11.7968V7.6766M10.468 11.8H11.5346M10.468 11.8L7.0013 11.7968M14.868 11.8C14.868 12.7205 14.1218 13.4667 13.2013 13.4667C12.2808 13.4667 11.5346 12.7205 11.5346 11.8M14.868 11.8C14.868 10.8795 14.1218 10.1333 13.2013 10.1333C12.2808 10.1333 11.5346 10.8795 11.5346 11.8M10.468 4V2.65447C10.468 1.74073 9.81132 1 9.0013 1H3.13464C2.32462 1 1.66797 1.74073 1.66797 2.65447V10.1423C1.66797 11.056 2.32462 11.7968 3.13464 11.7968H3.66797M10.468 4V7.6766M7.0013 11.7968C7.0013 12.7172 6.25511 13.4634 5.33464 13.4634C4.41416 13.4634 3.66797 12.7172 3.66797 11.7968M7.0013 11.7968C7.0013 10.8763 6.25511 10.1301 5.33464 10.1301C4.41416 10.1301 3.66797 10.8763 3.66797 11.7968" stroke="#A8BA66" stroke-width="1.5"/>
</svg>
