<svg width="27" height="24" viewBox="0 0 27 24" fill="none" xmlns="http://www.w3.org/2000/svg">
<path d="M24.4 18.1263C24.4 19.603 23.179 20.8 21.6727 20.8C20.1665 20.8 18.9455 19.603 18.9455 18.1263C18.9455 16.6496 20.1665 15.4525 21.6727 15.4525C23.179 15.4525 24.4 16.6496 24.4 18.1263Z" fill="#A8BA66" fill-opacity="0.15"/>
<path d="M14.8 0.800049H5.2C3.87452 0.800049 2.8 1.98839 2.8 3.45428V15.4668C2.8 16.9327 3.87452 18.1211 5.2 18.1211H6.07273C6.07273 16.6444 7.29377 15.4473 8.8 15.4473C10.3062 15.4473 11.5273 16.6444 11.5273 18.1211L17.2 18.1263V18.1211V5.61288V3.45428C17.2 1.98839 16.1255 0.800049 14.8 0.800049Z" fill="#A8BA66" fill-opacity="0.15"/>
<path d="M8.8 20.7949C10.3062 20.7949 11.5273 19.5978 11.5273 18.1211C11.5273 16.6444 10.3062 15.4473 8.8 15.4473C7.29377 15.4473 6.07273 16.6444 6.07273 18.1211C6.07273 19.5978 7.29377 20.7949 8.8 20.7949Z" fill="#A8BA66" fill-opacity="0.15"/>
<path d="M26.8 15.9625V11.5112C26.8 10.7775 26.5254 10.0766 26.0415 9.57481L22.6924 6.33075C22.2476 5.86955 21.6607 5.61288 21.0509 5.61288H17.2V18.1211V18.1263H18.9455C18.9455 16.6496 20.1665 15.4525 21.6727 15.4525C23.179 15.4525 24.4 16.6496 24.4 18.1263C25.7255 18.1263 26.8 17.4283 26.8 15.9625Z" fill="#A8BA66" fill-opacity="0.15"/>
<path d="M15.4 19.3262V19.321V6.81283M15.4 19.3262H17.1455M15.4 19.3262L9.72727 19.321M22.6 19.3262C23.9255 19.3262 25 18.6283 25 17.1624V12.7111C25 11.9775 24.7254 11.2765 24.2415 10.7748L20.8924 7.5307C20.4476 7.0695 19.8607 6.81283 19.2509 6.81283H15.4M22.6 19.3262C22.6 20.8029 21.379 22 19.8727 22C18.3665 22 17.1455 20.8029 17.1455 19.3262M22.6 19.3262C22.6 17.8495 21.379 16.6524 19.8727 16.6524C18.3665 16.6524 17.1455 17.8495 17.1455 19.3262M15.4 6.81283V4.65423C15.4 3.18834 14.3255 2 13 2H3.4C2.07452 2 1 3.18834 1 4.65423V16.6668C1 18.1327 2.07452 19.321 3.4 19.321H4.27273M9.72727 19.321C9.72727 20.7977 8.50623 21.9948 7 21.9948C5.49377 21.9948 4.27273 20.7977 4.27273 19.321M9.72727 19.321C9.72727 17.8443 8.50623 16.6472 7 16.6472C5.49377 16.6472 4.27273 17.8443 4.27273 19.321" stroke="currentColor" stroke-width="2"/>
</svg>
