<svg width="14" height="16" viewBox="0 0 14 16" fill="none" xmlns="http://www.w3.org/2000/svg">
<path d="M12.3346 12.1667C12.3346 13.5474 10.031 14.6667 7.0013 14.6667C3.97163 14.6667 1.66797 13.5474 1.66797 12.1667C1.66797 9.81818 3.97163 8.60606 7.0013 8.60606C10.031 8.60606 12.3346 9.81818 12.3346 12.1667Z" fill="#A8BA66"/>
<path d="M9.4013 3.75758C9.4013 5.27273 8.39383 6.18182 7.0013 6.18182C5.60877 6.18182 4.6013 5.27273 4.6013 3.75758C4.6013 2.24243 5.66797 1.33334 7.0013 1.33334C8.33463 1.33334 9.4013 2.24243 9.4013 3.75758Z" fill="#A8BA66"/>
<path d="M12.3346 12.1667C12.3346 13.5474 10.031 14.6667 7.0013 14.6667C3.97163 14.6667 1.66797 13.5474 1.66797 12.1667C1.66797 9.81818 3.97163 8.60606 7.0013 8.60606C10.031 8.60606 12.3346 9.81818 12.3346 12.1667Z" stroke="#A8BA66" stroke-width="1.5" stroke-linejoin="round"/>
<path d="M9.4013 3.75758C9.4013 5.27273 8.39383 6.18182 7.0013 6.18182C5.60877 6.18182 4.6013 5.27273 4.6013 3.75758C4.6013 2.24243 5.66797 1.33334 7.0013 1.33334C8.33463 1.33334 9.4013 2.24243 9.4013 3.75758Z" stroke="#A8BA66" stroke-width="1.5" stroke-linejoin="round"/>
</svg>
